#N canvas 342 221 453 617 10;
#X obj 16 363 pix_mean_color;
#X obj 98 383 unpack 0 0 0 0;
#X obj 16 341 pix_crop;
#X obj -53 288 inlet;
#X text -65 267 gem_list;
#X obj -5 156 -;
#X obj 102 161 -;
#X obj -48 466 pix_texture;
#X obj -48 514 rotateXYZ 0 180 0;
#X obj -48 490 translateXYZ -1.7 1.7 0.2;
#X obj -48 537 rectangle 2 2;
#X obj -5 201 int;
#X obj -5 179 * 160;
#X obj -5 226 * 2;
#X obj 102 184 * 120;
#X obj 102 208 int;
#X obj 102 232 * 2;
#X obj 201 186 - 240;
#X obj 201 162 * 240;
#X obj 201 228 * -1;
#X obj 201 207 int;
#X obj -33 110 inlet maxX;
#X obj 34 110 inlet minX;
#X obj 102 110 inlet maxY;
#X obj 169 110 inlet minY;
#X obj 141 441 outlet Green;
#X obj 185 460 outlet Blue;
#X obj 228 480 outlet Alpha;
#X obj -31 437 spigot 0;
#X obj 14 416 tgl 15 0 empty empty empty 17 7 0 10 -262144 -1 -1 0
1;
#X text 0 399 Debug btn;
#X obj 146 198 int;
#X obj 146 174 * 160;
#X obj 147 226 * 2;
#X obj 96 421 outlet Red;
#X connect 0 0 28 0;
#X connect 0 1 1 0;
#X connect 1 0 34 0;
#X connect 1 1 25 0;
#X connect 1 2 26 0;
#X connect 1 3 27 0;
#X connect 2 0 0 0;
#X connect 3 0 2 0;
#X connect 5 0 12 0;
#X connect 6 0 14 0;
#X connect 7 0 9 0;
#X connect 8 0 10 0;
#X connect 9 0 8 0;
#X connect 11 0 13 0;
#X connect 12 0 11 0;
#X connect 13 0 2 1;
#X connect 14 0 15 0;
#X connect 15 0 16 0;
#X connect 16 0 2 2;
#X connect 17 0 20 0;
#X connect 18 0 17 0;
#X connect 19 0 2 4;
#X connect 20 0 19 0;
#X connect 21 0 5 0;
#X connect 22 0 5 1;
#X connect 22 0 32 0;
#X connect 23 0 6 0;
#X connect 23 0 18 0;
#X connect 24 0 6 1;
#X connect 28 0 7 0;
#X connect 29 0 28 1;
#X connect 31 0 33 0;
#X connect 32 0 31 0;
#X connect 33 0 2 3;
