#N canvas 153 126 685 570 10;
#X declare -lib iemmatrix;
#X declare -lib Gem;
#X obj 483 35 gemwin_control;
#X obj 416 150 separator;
#X obj 416 171 pix_texture;
#X obj 185 78 gemhead 10;
#X obj 185 122 pix_video;
#X text 385 121 Render source video;
#X obj 416 211 square 4;
#X obj 246 38 import iemmatrix;
#X msg 261 101 device 1;
#N canvas 162 133 570 420 serin 0;
#X obj 205 60 cnv 20 20 20 empty \$0-open-canvas 1 4 10 0 16 -233017
-1 0;
#X obj 60 61 hradio 18 1 1 8 empty empty empty 0 -6 0 8 -225271 -1
-1 1;
#X obj 60 13 inlet;
#X msg 200 202 label \$1;
#X obj 200 180 makefilename %d;
#X obj 59 108 int;
#X obj 59 337 outlet;
#X msg 201 306 set \$1 \$2;
#X obj 59 266 trigger bang anything;
#X obj 201 286 list;
#X obj 200 225 send \$0-open-canvas;
#X msg 60 210 device \$1;
#X connect 1 0 5 0;
#X connect 2 0 1 0;
#X connect 3 0 10 0;
#X connect 4 0 3 0;
#X connect 5 0 4 0;
#X connect 5 0 11 0;
#X connect 7 0 6 0;
#X connect 8 0 6 0;
#X connect 8 1 9 0;
#X connect 9 0 7 0;
#X connect 11 0 8 0;
#X coords 0 -1 1 1 165 20 1 60 60;
#X restore 261 77 pd serin;
#X obj 369 37 import Gem;
#X msg 425 102 colorspace RGBA;
#X msg 534 101 dialog;
#X msg 327 100 dimen 320 240;
#X obj 416 191 rotateXYZ 0 180 0;
#X obj 11 274 pix_texture;
#X obj 11 336 square 1.5;
#X obj 11 315 rotateXYZ 0 180 0;
#X obj 11 294 translateXYZ -2.4 -2.4 0.1;
#X text 7 361 Show color detection output;
#X obj 154 218 pix_colordetect;
#X obj 264 360 pix_texture;
#X obj 264 422 square 1.5;
#X obj 264 401 rotateXYZ 0 180 0;
#X obj 188 273 separator;
#X obj 66 246 separator;
#X obj 264 380 translateXYZ 0 0 0.1;
#X obj 220 326 pix_equal;
#X msg 267 280 254 0 0 0;
#X msg 346 281 255 0 0 255;
#X connect 1 0 2 0;
#X connect 2 0 14 0;
#X connect 3 0 4 0;
#X connect 4 0 1 0;
#X connect 4 0 20 0;
#X connect 8 0 4 0;
#X connect 9 0 8 0;
#X connect 11 0 4 0;
#X connect 12 0 4 0;
#X connect 13 0 4 0;
#X connect 14 0 6 0;
#X connect 15 0 18 0;
#X connect 17 0 16 0;
#X connect 18 0 17 0;
#X connect 20 0 25 0;
#X connect 20 0 24 0;
#X connect 21 0 26 0;
#X connect 23 0 22 0;
#X connect 24 0 27 0;
#X connect 25 0 15 0;
#X connect 26 0 23 0;
#X connect 27 0 21 0;
#X connect 28 0 27 1;
#X connect 29 0 27 2;
