#N canvas 605 304 1024 714 10;
#X declare -lib iemmatrix;
#X declare -lib Gem;
#X obj 483 35 gemwin_control;
#X obj 420 203 separator;
#X obj 420 224 pix_texture;
#X obj 185 78 gemhead 10;
#X obj 199 126 pix_video;
#X text 385 121 Render source video;
#X obj 420 264 square 4;
#X obj 246 38 import iemmatrix;
#X msg 261 101 device 0;
#N canvas 162 133 570 420 serin 0;
#X obj 205 60 cnv 20 20 20 empty \$0-open-canvas 0 4 10 0 16 -233017
-1 0;
#X obj 60 61 hradio 18 1 1 8 empty empty empty 0 -6 0 8 -225271 -1
-1 0;
#X obj 60 13 inlet;
#X msg 200 202 label \$1;
#X obj 200 180 makefilename %d;
#X obj 59 108 int;
#X obj 59 337 outlet;
#X msg 201 306 set \$1 \$2;
#X obj 59 266 trigger bang anything;
#X obj 201 286 list;
#X obj 200 225 send \$0-open-canvas;
#X msg 60 210 device \$1;
#X connect 1 0 5 0;
#X connect 2 0 1 0;
#X connect 3 0 10 0;
#X connect 4 0 3 0;
#X connect 5 0 4 0;
#X connect 5 0 11 0;
#X connect 7 0 6 0;
#X connect 8 0 6 0;
#X connect 8 1 9 0;
#X connect 9 0 7 0;
#X connect 11 0 8 0;
#X coords 0 -1 1 1 165 20 1 60 60;
#X restore 261 77 pd serin;
#X obj 369 37 import Gem;
#X msg 425 102 colorspace RGBA;
#X msg 534 101 dialog;
#X msg 327 100 dimen 320 240;
#X obj 420 244 rotateXYZ 0 180 0;
#X obj 11 559 pix_texture;
#X obj 11 621 square 1.5;
#X obj 11 600 rotateXYZ 0 180 0;
#X obj 11 579 translateXYZ -2.4 -2.4 0.1;
#X text 7 646 Show color detection output;
#X obj 182 629 pix_texture;
#X obj 182 670 rotateXYZ 0 180 0;
#X obj 182 600 pix_equal;
#X obj 314 631 pix_texture;
#X obj 314 672 rotateXYZ 0 180 0;
#X obj 314 530 separator;
#X obj 314 602 pix_equal;
#X obj 451 635 pix_texture;
#X obj 451 676 rotateXYZ 0 180 0;
#X obj 451 534 separator;
#X obj 451 606 pix_equal;
#X obj 583 635 pix_texture;
#X obj 583 676 rotateXYZ 0 180 0;
#X obj 583 534 separator;
#X obj 583 606 pix_equal;
#X obj 715 637 pix_texture;
#X obj 715 678 rotateXYZ 0 180 0;
#X obj 715 536 separator;
#X obj 715 608 pix_equal;
#X obj 852 641 pix_texture;
#X obj 852 682 rotateXYZ 0 180 0;
#X obj 852 540 separator;
#X obj 852 612 pix_equal;
#X msg 734 559 0 0 0 0;
#X obj 182 691 square 0.7;
#X obj 852 703 square 0.7;
#X obj 717 699 square 0.7;
#X obj 584 697 square 0.7;
#X obj 451 697 square 0.7;
#X obj 316 693 square 0.7;
#X obj 182 649 translateXYZ -0.2 -3.2 0.1;
#X obj 314 651 translateXYZ 1 -3.2 0.1;
#X obj 451 655 translateXYZ 2 -3.2 0.1;
#X obj 583 655 translateXYZ 3.3 -3.2 0.1;
#X obj 715 657 translateXYZ -3.2 0 0.1;
#X obj 852 661 translateXYZ -3.2 1.5 0.1;
#X floatatom 262 761 5 0 0 0 - - -;
#X text 321 741 number of;
#X text 304 756 detected objects;
#X obj 262 741 mtx_size;
#X obj 50 724 pix_multiblob 6;
#X obj 182 507 pix_separator;
#X obj 66 531 separator;
#X obj 182 531 separator;
#X obj 314 508 pix_separator;
#X obj 451 508 pix_separator;
#X obj 583 509 pix_separator;
#X obj 715 509 pix_separator;
#X obj 851 510 pix_separator;
#X obj 199 148 pix_gain;
#X floatatom 101 176 5 0 0 1 common - -;
#X msg 96 135 1 0.5 0;
#X msg 97 157 0 0.4 0.8 1;
#X obj 929 548 loadbang;
#X obj 211 384 separator;
#X obj 212 197 cnv 15 160 150 empty empty empty 20 12 0 14 -24198 -66577
0;
#X obj 213 325 pix_colormatrix;
#X floatatom 257 254 3 -1 2 0 - - -;
#X floatatom 280 254 3 -1 2 0 - - -;
#X floatatom 303 254 3 -1 2 0 - - -;
#X floatatom 257 268 3 -1 2 0 - - -;
#X floatatom 280 268 3 -1 2 0 - - -;
#X floatatom 303 268 3 -1 2 0 - - -;
#X floatatom 257 282 3 -1 2 0 - - -;
#X floatatom 280 282 3 -1 2 0 - - -;
#X floatatom 303 282 3 -1 1000 0 - - -;
#N canvas 0 0 450 300 pack 0;
#X obj 69 169 pack 0 0 0 0 0 0 0 0 0;
#X obj 69 139 t b f;
#X obj 106 139 t b f;
#X obj 143 139 t b f;
#X obj 180 139 t b f;
#X obj 217 139 t b f;
#X obj 254 139 t b f;
#X obj 291 139 t b f;
#X obj 328 139 t b f;
#X obj 32 111 inlet;
#X obj 69 111 inlet;
#X obj 106 111 inlet;
#X obj 143 111 inlet;
#X obj 180 111 inlet;
#X obj 217 111 inlet;
#X obj 254 111 inlet;
#X obj 291 111 inlet;
#X obj 328 111 inlet;
#X obj 69 196 outlet;
#X connect 0 0 18 0;
#X connect 1 0 0 0;
#X connect 1 1 0 1;
#X connect 2 0 0 0;
#X connect 2 1 0 2;
#X connect 3 0 0 0;
#X connect 3 1 0 3;
#X connect 4 0 0 0;
#X connect 4 1 0 4;
#X connect 5 0 0 0;
#X connect 5 1 0 5;
#X connect 6 0 0 0;
#X connect 6 1 0 6;
#X connect 7 0 0 0;
#X connect 7 1 0 7;
#X connect 8 0 0 0;
#X connect 8 1 0 8;
#X connect 9 0 0 0;
#X connect 10 0 1 0;
#X connect 11 0 2 0;
#X connect 12 0 3 0;
#X connect 13 0 4 0;
#X connect 14 0 5 0;
#X connect 15 0 6 0;
#X connect 16 0 7 0;
#X connect 17 0 8 0;
#X restore 236 295 pd pack 9 . . .;
#X msg 233 223 1;
#X obj 233 204 loadbang;
#X obj 415 173 pix_separator;
#X obj 206 359 pix_separator;
#X msg 201 551 1 0 0 0;
#X msg 201 571 1 0 0 1;
#X msg 333 553 0 1 0 0;
#X msg 470 557 0 0 1 0;
#X msg 470 577 0 0 1 1;
#X msg 602 557 1 1 0 0;
#X msg 602 577 1 1 0 1;
#X msg 734 579 0 0 0 1;
#X msg 871 563 1 1 1 0;
#X msg 871 583 1 1 1 1;
#X obj 240 420 pix_colorclassify;
#X msg 325 577 0 1 0 1;
#X connect 1 0 2 0;
#X connect 2 0 14 0;
#X connect 3 0 4 0;
#X connect 4 0 69 0;
#X connect 8 0 4 0;
#X connect 9 0 8 0;
#X connect 11 0 4 0;
#X connect 12 0 4 0;
#X connect 13 0 4 0;
#X connect 14 0 6 0;
#X connect 15 0 18 0;
#X connect 17 0 16 0;
#X connect 18 0 17 0;
#X connect 20 0 50 0;
#X connect 21 0 44 0;
#X connect 22 0 20 0;
#X connect 23 0 51 0;
#X connect 24 0 49 0;
#X connect 25 0 26 0;
#X connect 26 0 23 0;
#X connect 27 0 52 0;
#X connect 28 0 48 0;
#X connect 29 0 30 0;
#X connect 30 0 27 0;
#X connect 31 0 53 0;
#X connect 32 0 47 0;
#X connect 33 0 34 0;
#X connect 34 0 31 0;
#X connect 35 0 54 0;
#X connect 36 0 46 0;
#X connect 37 0 38 0;
#X connect 38 0 35 0;
#X connect 39 0 55 0;
#X connect 40 0 45 0;
#X connect 41 0 42 0;
#X connect 42 0 39 0;
#X connect 43 0 38 1;
#X connect 50 0 21 0;
#X connect 51 0 24 0;
#X connect 52 0 28 0;
#X connect 53 0 32 0;
#X connect 54 0 36 0;
#X connect 55 0 40 0;
#X connect 59 0 56 0;
#X connect 60 1 59 0;
#X connect 61 0 63 0;
#X connect 62 0 15 0;
#X connect 63 0 22 0;
#X connect 64 0 25 0;
#X connect 65 0 29 0;
#X connect 66 0 33 0;
#X connect 67 0 37 0;
#X connect 68 0 41 0;
#X connect 69 0 76 0;
#X connect 70 0 69 1;
#X connect 71 0 69 2;
#X connect 72 0 69 2;
#X connect 73 0 99 0;
#X connect 73 0 100 0;
#X connect 73 0 43 0;
#X connect 73 0 98 0;
#X connect 73 0 96 0;
#X connect 73 0 97 0;
#X connect 73 0 94 0;
#X connect 73 0 95 0;
#X connect 73 0 93 0;
#X connect 73 0 102 0;
#X connect 73 0 91 0;
#X connect 73 0 92 0;
#X connect 74 0 101 0;
#X connect 76 0 89 0;
#X connect 76 0 90 0;
#X connect 77 0 86 0;
#X connect 78 0 86 1;
#X connect 79 0 86 2;
#X connect 80 0 86 3;
#X connect 81 0 86 4;
#X connect 82 0 86 5;
#X connect 83 0 86 6;
#X connect 84 0 86 7;
#X connect 85 0 86 8;
#X connect 86 0 76 1;
#X connect 87 0 77 0;
#X connect 87 0 81 0;
#X connect 87 0 85 0;
#X connect 88 0 87 0;
#X connect 89 0 1 0;
#X connect 90 0 74 0;
#X connect 91 0 22 1;
#X connect 92 0 22 2;
#X connect 93 0 26 1;
#X connect 94 0 30 1;
#X connect 95 0 30 2;
#X connect 96 0 34 1;
#X connect 97 0 34 2;
#X connect 98 0 38 2;
#X connect 99 0 42 1;
#X connect 100 0 42 2;
#X connect 101 0 61 0;
#X connect 101 0 62 0;
#X connect 101 0 64 0;
#X connect 101 0 65 0;
#X connect 101 0 66 0;
#X connect 101 0 67 0;
#X connect 101 0 68 0;
#X connect 102 0 26 2;
