#N canvas 55 99 715 668 10;
#X declare -lib iemmatrix;
#X declare -lib Gem;
#X declare -lib iemmatrix;
#X declare -lib iemmatrix;
#X obj 357 43 gemwin_control;
#X obj -51 446 separator;
#X obj -49 469 pix_texture;
#X obj 70 87 gemhead 10;
#X obj 70 131 pix_video;
#X text -78 423 Render source video;
#X obj -49 509 square 4;
#X obj 120 46 import iemmatrix;
#X msg 146 110 device 2;
#N canvas 162 133 570 420 serin 0;
#X obj 205 60 cnv 20 20 20 empty \$0-open-canvas 2 4 10 0 16 -233017
-1 0;
#X obj 60 61 hradio 18 1 1 8 empty empty empty 0 -6 0 8 -225271 -1
-1 2;
#X obj 60 13 inlet;
#X msg 200 202 label \$1;
#X obj 200 180 makefilename %d;
#X obj 59 108 int;
#X obj 59 337 outlet;
#X msg 201 306 set \$1 \$2;
#X obj 59 266 trigger bang anything;
#X obj 201 286 list;
#X obj 200 225 send \$0-open-canvas;
#X msg 60 210 device \$1;
#X connect 1 0 5 0;
#X connect 2 0 1 0;
#X connect 3 0 10 0;
#X connect 4 0 3 0;
#X connect 5 0 4 0;
#X connect 5 0 11 0;
#X connect 7 0 6 0;
#X connect 8 0 6 0;
#X connect 8 1 9 0;
#X connect 9 0 7 0;
#X connect 11 0 8 0;
#X coords 0 -1 1 1 165 20 1 60 60;
#X restore 146 86 pd serin;
#X obj 243 45 import Gem;
#X msg 310 111 colorspace RGBA;
#X msg 419 110 dialog;
#X msg 212 109 dimen 320 240;
#X obj -49 489 rotateXYZ 0 180 0;
#X obj 70 202 pix_colordetect;
#X obj 70 334 pix_equal;
#X msg 121 308 255 0 0 255;
#X msg 121 285 255 0 0 0;
#X floatatom 206 420 5 0 0 0 - - -;
#X text 265 400 number of;
#X text 248 415 detected objects;
#X obj 206 400 mtx_size;
#X obj 70 383 pix_multiblob 6;
#X obj 70 170 separator;
#X obj 382 381 pix_texture;
#X obj 382 422 rotateXYZ 0 180 0;
#X obj 382 443 square 0.7;
#X obj 382 401 translateXYZ -0.2 -3.2 0.1;
#X obj 197 247 cnv 15 185 120 empty empty empty 20 12 0 14 -24198 -66577
0;
#X floatatom 211 280 3 0 100 2 threshold - -;
#X obj 211 297 / 100;
#X msg 211 318 threshold \$1;
#X floatatom 299 276 3 0 100 2 blobsize - -;
#X obj 301 297 / 100;
#X msg 301 318 blobSize \$1;
#X floatatom 94 509 5 0 0 1 x - -;
#X floatatom 94 526 5 0 0 1 y - -;
#X floatatom 94 544 5 0 0 1 size - -;
#X obj 70 253 pix_separator;
#X floatatom 208 510 5 0 0 1 x - -;
#X floatatom 208 527 5 0 0 1 y - -;
#X floatatom 208 545 5 0 0 1 size - -;
#X obj 186 468 showobject2 2;
#X obj 72 467 showobject2 1;
#X obj 252 176 loadbang;
#X msg 299 225 60;
#X msg 211 227 50;
#X text 31 332 Red;
#X connect 1 0 2 0;
#X connect 2 0 14 0;
#X connect 3 0 4 0;
#X connect 4 0 24 0;
#X connect 8 0 4 0;
#X connect 9 0 8 0;
#X connect 11 0 4 0;
#X connect 12 0 4 0;
#X connect 13 0 4 0;
#X connect 14 0 6 0;
#X connect 15 0 39 0;
#X connect 15 0 1 0;
#X connect 16 0 23 0;
#X connect 17 0 16 2;
#X connect 18 0 16 1;
#X connect 19 0 43 2;
#X connect 19 0 44 2;
#X connect 22 0 19 0;
#X connect 23 1 22 0;
#X connect 23 1 43 1;
#X connect 23 1 44 1;
#X connect 24 0 15 0;
#X connect 25 0 28 0;
#X connect 26 0 27 0;
#X connect 28 0 26 0;
#X connect 30 0 31 0;
#X connect 31 0 32 0;
#X connect 32 0 23 0;
#X connect 33 0 34 0;
#X connect 34 0 35 0;
#X connect 35 0 23 0;
#X connect 39 0 16 0;
#X connect 43 0 40 0;
#X connect 43 1 41 0;
#X connect 43 2 42 0;
#X connect 44 0 36 0;
#X connect 44 1 37 0;
#X connect 44 2 38 0;
#X connect 45 0 18 0;
#X connect 45 0 17 0;
#X connect 45 0 47 0;
#X connect 45 0 46 0;
#X connect 46 0 33 0;
#X connect 47 0 30 0;
