#N canvas 625 163 450 300 10;
#X obj 106 38 inlet Red;
#X obj 183 37 inlet Green;
#X obj 271 38 inlet Blue;
#X obj 133 76 >;
#X obj 73 75 >;
#X obj 86 173 spigot 0;
#X obj 7 106 inlet bang;
#X obj 240 83 >;
#X obj 184 82 >;
#X obj 163 177 spigot 0;
#X obj 360 83 >;
#X obj 306 82 >;
#X obj 263 175 spigot 0;
#X obj 104 103 &&;
#X obj 208 109 &&;
#X obj 332 109 &&;
#X msg 42 145 RED;
#X obj 165 224 print Object Color;
#X msg 155 148 GREEN;
#X msg 257 144 BLUE;
#X connect 0 0 3 0;
#X connect 0 0 4 0;
#X connect 0 0 7 1;
#X connect 0 0 10 1;
#X connect 1 0 3 1;
#X connect 1 0 7 0;
#X connect 1 0 8 0;
#X connect 1 0 11 1;
#X connect 2 0 4 0;
#X connect 2 0 8 1;
#X connect 2 0 10 0;
#X connect 2 0 11 0;
#X connect 3 0 13 1;
#X connect 4 0 13 0;
#X connect 5 0 17 0;
#X connect 6 0 16 0;
#X connect 6 0 18 0;
#X connect 6 0 19 0;
#X connect 7 0 14 1;
#X connect 8 0 14 0;
#X connect 9 0 17 0;
#X connect 10 0 15 1;
#X connect 11 0 15 0;
#X connect 12 0 17 0;
#X connect 13 0 5 1;
#X connect 14 0 9 1;
#X connect 15 0 12 1;
#X connect 16 0 5 0;
#X connect 18 0 9 0;
#X connect 19 0 12 0;
