#N canvas 625 163 450 300 10;
#X obj 106 38 inlet Red;
#X obj 183 37 inlet Green;
#X obj 271 38 inlet Blue;
#X obj 133 76 >;
#X obj 131 104 >;
#X obj 86 136 spigot 0;
#X obj 29 93 inlet bang;
#X obj 86 169 print RED;
#X obj 212 80 >;
#X obj 210 108 >;
#X obj 165 140 spigot 0;
#X obj 310 78 >;
#X obj 308 106 >;
#X obj 263 138 spigot 0;
#X obj 165 173 print GREEN;
#X obj 263 171 print BLUE;
#X connect 0 0 3 0;
#X connect 0 0 4 0;
#X connect 0 0 8 1;
#X connect 0 0 11 1;
#X connect 1 0 3 1;
#X connect 1 0 8 0;
#X connect 1 0 9 0;
#X connect 1 0 12 1;
#X connect 2 0 4 0;
#X connect 2 0 9 1;
#X connect 2 0 11 0;
#X connect 2 0 12 0;
#X connect 4 0 5 1;
#X connect 5 0 7 0;
#X connect 6 0 5 0;
#X connect 6 0 10 0;
#X connect 6 0 13 0;
#X connect 9 0 10 1;
#X connect 10 0 14 0;
#X connect 12 0 13 1;
#X connect 13 0 15 0;
