#N canvas 706 116 987 892 10;
#X declare -lib Gem;
#X declare -lib Zexy;
#X obj 8 10 cnv 15 400 40 empty empty Hacktable 20 12 0 24 -228992
-66577 0;
#X obj 465 16 gemwin_control;
#X obj 551 55 import Gem;
#X obj 224 242 pix_grey;
#X msg 249 270 reset;
#X obj 224 298 pix_background;
#X msg 317 278 \$1 \$1 \$1;
#X obj 437 182 separator;
#X obj 437 203 pix_texture;
#X obj 433 366 pix_texture;
#X obj 224 219 separator;
#X obj 433 346 alpha;
#X obj 433 326 colourRGB 1 1 1 0.65;
#X obj 433 386 translateXYZ -2.4 -2.4 0;
#X obj 433 406 square 1.5;
#X obj 382 94 gemhead 10;
#X obj 382 138 pix_video;
#X text 431 307 Show pix_background output;
#X text 413 276 Set noise threshold;
#X text 436 164 Render source video;
#X obj 323 255 hsl 128 15 0 1 0 1 empty empty empty -2 -8 0 10 -262130
-1 -1 3400 1;
#X floatatom 376 278 5 0 0 0 - - -;
#X text 21 64 1) make sure no one is in the camera picture;
#X text 21 85 2) click the [reset( message;
#X text 21 105 3) set the noise threshold for best results;
#N canvas 0 22 450 300 (subpatch) 0;
#X array fm-output 441 float 0;
#X coords 0 1.02 440 -1.02 200 130 1;
#X restore 59 651 graph;
#X text 90 785 --- 0.01 seconds ----;
#X obj 167 576 tabwrite~ fm-output;
#X obj 95 577 output~;
#X obj 427 579 output~;
#X obj 437 224 square 4;
#X obj 466 56 import Zexy;
#X obj 283 420 mtx_size;
#X floatatom 283 443 5 0 0 0 - - -;
#X text 261 466 number of;
#N canvas 292 481 671 492 showobject 0;
#N canvas 0 22 529 457 makesound 0;
#X obj 106 255 *~;
#X obj -49 303 +~;
#X text -187 116 carrier;
#X text -199 130 frequency;
#X obj -50 347 osc~;
#X text -138 330 "carrier";
#X text -156 348 oscillator -->;
#X text -143 265 add modulator;
#X text -144 283 to carrier;
#X text -146 302 frequency -->;
#X text 99 126 index;
#X text 101 107 modulation;
#X obj 41 223 osc~;
#X obj -5 112 * 200;
#X floatatom -98 219 5 0 0 0 - - -;
#X floatatom 21 177 5 0 0 0 - - -;
#X floatatom 103 198 5 0 0 0 - - -;
#X obj -139 122 * 500;
#X obj 45 113 * 10000;
#X obj -48 390 outlet~;
#X obj -142 62 inlet;
#X obj -13 56 inlet;
#X obj 53 70 inlet;
#X obj -135 162 + 150;
#X text -83 118 frequency;
#X text -74 104 modulation;
#X connect 0 0 1 1;
#X connect 1 0 4 0;
#X connect 4 0 19 0;
#X connect 12 0 0 0;
#X connect 13 0 15 0;
#X connect 14 0 1 0;
#X connect 15 0 12 0;
#X connect 16 0 0 0;
#X connect 17 0 23 0;
#X connect 18 0 16 0;
#X connect 20 0 17 0;
#X connect 21 0 13 0;
#X connect 22 0 18 0;
#X connect 23 0 14 0;
#X restore 240 309 pd makesound;
#N canvas 387 646 450 300 showblob 0;
#X obj 3 69 inlet blobinformation;
#X obj 3 121 unpack 0 0 0 0 0 0 0 0;
#X obj 3 150 outlet weightedX;
#X obj 24 170 outlet weightedY;
#X obj 45 190 outlet weightedSize;
#X obj 92 219 outlet minX;
#X obj 113 239 outlet minY;
#X obj 179 219 outlet maxX;
#X obj 196 239 outlet maxY;
#X obj 284 221 outlet size;
#N canvas 96 591 568 356 rectangle 0;
#X obj 68 75 inlet;
#X obj 215 -1 inlet;
#X obj 68 257 rectangle;
#X obj 68 234 translateXYZ;
#X obj 215 69 unpack 0 0 0 0;
#X obj 215 94 +;
#X obj 254 95 +;
#X text 248 125 0..2;
#X text 250 145 -1..+1;
#X obj 307 147 -;
#X obj 344 148 -;
#X obj 193 124 - 1;
#X obj 222 123 - 1;
#X obj 307 179 * -4;
#X obj 344 179 * -4;
#X obj 222 146 * -4;
#X obj 193 147 * 4;
#X obj 441 179 inlet;
#X obj 307 206 *;
#X obj 344 207 *;
#X connect 0 0 3 0;
#X connect 1 0 4 0;
#X connect 3 0 2 0;
#X connect 4 0 5 0;
#X connect 4 0 9 0;
#X connect 4 1 5 1;
#X connect 4 1 9 1;
#X connect 4 2 6 0;
#X connect 4 2 10 0;
#X connect 4 3 6 1;
#X connect 4 3 10 1;
#X connect 5 0 11 0;
#X connect 6 0 12 0;
#X connect 9 0 13 0;
#X connect 10 0 14 0;
#X connect 11 0 16 0;
#X connect 12 0 15 0;
#X connect 13 0 18 1;
#X connect 14 0 19 1;
#X connect 15 0 3 2;
#X connect 16 0 3 1;
#X connect 17 0 19 0;
#X connect 17 0 18 0;
#X connect 18 0 2 1;
#X connect 19 0 2 2;
#X restore 282 171 pd rectangle;
#X obj 282 100 color 1 1 1 0.5;
#X obj 282 79 gemhead 70;
#X obj 282 121 alpha;
#X msg 3 97 \$1 \$2 \$3 \$4 \$5 \$6 \$7 \$8;
#X msg 295 145 \$4 \$6 \$5 \$7;
#X obj 378 154 inlet;
#X connect 0 0 14 0;
#X connect 0 0 15 0;
#X connect 1 0 2 0;
#X connect 1 1 3 0;
#X connect 1 2 4 0;
#X connect 1 3 5 0;
#X connect 1 4 6 0;
#X connect 1 5 7 0;
#X connect 1 6 8 0;
#X connect 1 7 9 0;
#X connect 11 0 13 0;
#X connect 12 0 11 0;
#X connect 13 0 10 0;
#X connect 14 0 1 0;
#X connect 15 0 10 1;
#X connect 16 0 10 2;
#X restore 265 274 pd showblob;
#X obj 266 254 matrix;
#X msg 265 233 row \$1;
#X obj 270 177 * 1;
#X obj 267 204 + 1;
#X obj 240 344 outlet~;
#X obj 280 142 >=;
#X obj 253 111 inlet;
#X text 147 110 Number of objects;
#X obj 311 113 inlet;
#X text 351 109 number of this object;
#X obj 143 237 inlet;
#X text 112 219 matrix of blobs;
#X obj 321 149 - 1;
#X connect 0 0 6 0;
#X connect 1 0 0 0;
#X connect 1 1 0 1;
#X connect 1 2 0 2;
#X connect 2 0 1 0;
#X connect 3 0 2 0;
#X connect 4 0 5 0;
#X connect 5 0 3 0;
#X connect 7 0 4 0;
#X connect 7 0 1 1;
#X connect 8 0 7 0;
#X connect 10 0 7 1;
#X connect 10 0 14 0;
#X connect 12 0 2 1;
#X connect 14 0 4 1;
#X restore 426 522 pd showobject;
#X floatatom 501 502 5 2 2 0 - - -;
#N canvas 292 481 671 492 showobject 0;
#N canvas 0 22 529 457 makesound 0;
#X obj 106 255 *~;
#X obj -49 303 +~;
#X text -187 116 carrier;
#X text -199 130 frequency;
#X obj -50 347 osc~;
#X text -138 330 "carrier";
#X text -156 348 oscillator -->;
#X text -143 265 add modulator;
#X text -144 283 to carrier;
#X text -146 302 frequency -->;
#X text 99 126 index;
#X text 101 107 modulation;
#X obj 41 223 osc~;
#X obj -5 112 * 200;
#X floatatom -98 219 5 0 0 0 - - -;
#X floatatom 21 177 5 0 0 0 - - -;
#X floatatom 103 198 5 0 0 0 - - -;
#X obj -139 122 * 500;
#X obj 45 113 * 10000;
#X obj -48 390 outlet~;
#X obj -142 62 inlet;
#X obj -13 56 inlet;
#X obj 53 70 inlet;
#X obj -135 162 + 150;
#X text -83 118 frequency;
#X text -74 104 modulation;
#X connect 0 0 1 1;
#X connect 1 0 4 0;
#X connect 4 0 19 0;
#X connect 12 0 0 0;
#X connect 13 0 15 0;
#X connect 14 0 1 0;
#X connect 15 0 12 0;
#X connect 16 0 0 0;
#X connect 17 0 23 0;
#X connect 18 0 16 0;
#X connect 20 0 17 0;
#X connect 21 0 13 0;
#X connect 22 0 18 0;
#X connect 23 0 14 0;
#X restore 240 309 pd makesound;
#N canvas 387 646 450 300 showblob 0;
#X obj 3 69 inlet blobinformation;
#X obj 3 121 unpack 0 0 0 0 0 0 0 0;
#X obj 3 150 outlet weightedX;
#X obj 24 170 outlet weightedY;
#X obj 45 190 outlet weightedSize;
#X obj 92 219 outlet minX;
#X obj 113 239 outlet minY;
#X obj 179 219 outlet maxX;
#X obj 196 239 outlet maxY;
#X obj 284 221 outlet size;
#N canvas 96 591 568 356 rectangle 0;
#X obj 68 75 inlet;
#X obj 215 -1 inlet;
#X obj 68 257 rectangle;
#X obj 68 234 translateXYZ;
#X obj 215 69 unpack 0 0 0 0;
#X obj 215 94 +;
#X obj 254 95 +;
#X text 248 125 0..2;
#X text 250 145 -1..+1;
#X obj 307 147 -;
#X obj 344 148 -;
#X obj 193 124 - 1;
#X obj 222 123 - 1;
#X obj 307 179 * -4;
#X obj 344 179 * -4;
#X obj 222 146 * -4;
#X obj 193 147 * 4;
#X obj 441 179 inlet;
#X obj 307 206 *;
#X obj 344 207 *;
#X connect 0 0 3 0;
#X connect 1 0 4 0;
#X connect 3 0 2 0;
#X connect 4 0 5 0;
#X connect 4 0 9 0;
#X connect 4 1 5 1;
#X connect 4 1 9 1;
#X connect 4 2 6 0;
#X connect 4 2 10 0;
#X connect 4 3 6 1;
#X connect 4 3 10 1;
#X connect 5 0 11 0;
#X connect 6 0 12 0;
#X connect 9 0 13 0;
#X connect 10 0 14 0;
#X connect 11 0 16 0;
#X connect 12 0 15 0;
#X connect 13 0 18 1;
#X connect 14 0 19 1;
#X connect 15 0 3 2;
#X connect 16 0 3 1;
#X connect 17 0 19 0;
#X connect 17 0 18 0;
#X connect 18 0 2 1;
#X connect 19 0 2 2;
#X restore 282 171 pd rectangle;
#X obj 282 100 color 1 1 1 0.5;
#X obj 282 79 gemhead 70;
#X obj 282 121 alpha;
#X msg 3 97 \$1 \$2 \$3 \$4 \$5 \$6 \$7 \$8;
#X msg 295 145 \$4 \$6 \$5 \$7;
#X obj 378 154 inlet;
#X connect 0 0 14 0;
#X connect 0 0 15 0;
#X connect 1 0 2 0;
#X connect 1 1 3 0;
#X connect 1 2 4 0;
#X connect 1 3 5 0;
#X connect 1 4 6 0;
#X connect 1 5 7 0;
#X connect 1 6 8 0;
#X connect 1 7 9 0;
#X connect 11 0 13 0;
#X connect 12 0 11 0;
#X connect 13 0 10 0;
#X connect 14 0 1 0;
#X connect 15 0 10 1;
#X connect 16 0 10 2;
#X restore 265 274 pd showblob;
#X obj 266 254 matrix;
#X msg 265 233 row \$1;
#X obj 270 177 * 1;
#X obj 267 204 + 1;
#X obj 240 344 outlet~;
#X obj 280 142 >=;
#X obj 253 111 inlet;
#X text 147 110 Number of objects;
#X obj 311 113 inlet;
#X text 351 109 number of this object;
#X obj 143 237 inlet;
#X text 112 219 matrix of blobs;
#X obj 321 149 - 1;
#X connect 0 0 6 0;
#X connect 1 0 0 0;
#X connect 1 1 0 1;
#X connect 1 2 0 2;
#X connect 2 0 1 0;
#X connect 3 0 2 0;
#X connect 4 0 5 0;
#X connect 5 0 3 0;
#X connect 7 0 4 0;
#X connect 7 0 1 1;
#X connect 8 0 7 0;
#X connect 10 0 7 1;
#X connect 10 0 14 0;
#X connect 12 0 2 1;
#X connect 14 0 4 1;
#X restore 129 517 pd showobject;
#X floatatom 204 499 5 1 1 0 - - -;
#X msg 230 529 bang;
#X obj 189 553 metro 100;
#X text 241 478 detected objects;
#X obj 548 581 output~;
#N canvas 292 481 671 492 showobject 0;
#N canvas 0 22 529 457 makesound 0;
#X obj 106 255 *~;
#X obj -49 303 +~;
#X text -187 116 carrier;
#X text -199 130 frequency;
#X obj -50 347 osc~;
#X text -138 330 "carrier";
#X text -156 348 oscillator -->;
#X text -143 265 add modulator;
#X text -144 283 to carrier;
#X text -146 302 frequency -->;
#X text 99 126 index;
#X text 101 107 modulation;
#X obj 41 223 osc~;
#X obj -5 112 * 200;
#X floatatom -98 219 5 0 0 0 - - -;
#X floatatom 21 177 5 0 0 0 - - -;
#X floatatom 103 198 5 0 0 0 - - -;
#X obj -139 122 * 500;
#X obj 45 113 * 10000;
#X obj -48 390 outlet~;
#X obj -142 62 inlet;
#X obj -13 56 inlet;
#X obj 53 70 inlet;
#X obj -135 162 + 150;
#X text -83 118 frequency;
#X text -74 104 modulation;
#X connect 0 0 1 1;
#X connect 1 0 4 0;
#X connect 4 0 19 0;
#X connect 12 0 0 0;
#X connect 13 0 15 0;
#X connect 14 0 1 0;
#X connect 15 0 12 0;
#X connect 16 0 0 0;
#X connect 17 0 23 0;
#X connect 18 0 16 0;
#X connect 20 0 17 0;
#X connect 21 0 13 0;
#X connect 22 0 18 0;
#X connect 23 0 14 0;
#X restore 240 309 pd makesound;
#N canvas 387 646 450 300 showblob 0;
#X obj 3 69 inlet blobinformation;
#X obj 3 121 unpack 0 0 0 0 0 0 0 0;
#X obj 3 150 outlet weightedX;
#X obj 24 170 outlet weightedY;
#X obj 45 190 outlet weightedSize;
#X obj 92 219 outlet minX;
#X obj 113 239 outlet minY;
#X obj 179 219 outlet maxX;
#X obj 196 239 outlet maxY;
#X obj 284 221 outlet size;
#N canvas 96 591 568 356 rectangle 0;
#X obj 68 75 inlet;
#X obj 215 -1 inlet;
#X obj 68 257 rectangle;
#X obj 68 234 translateXYZ;
#X obj 215 69 unpack 0 0 0 0;
#X obj 215 94 +;
#X obj 254 95 +;
#X text 248 125 0..2;
#X text 250 145 -1..+1;
#X obj 307 147 -;
#X obj 344 148 -;
#X obj 193 124 - 1;
#X obj 222 123 - 1;
#X obj 307 179 * -4;
#X obj 344 179 * -4;
#X obj 222 146 * -4;
#X obj 193 147 * 4;
#X obj 441 179 inlet;
#X obj 307 206 *;
#X obj 344 207 *;
#X connect 0 0 3 0;
#X connect 1 0 4 0;
#X connect 3 0 2 0;
#X connect 4 0 5 0;
#X connect 4 0 9 0;
#X connect 4 1 5 1;
#X connect 4 1 9 1;
#X connect 4 2 6 0;
#X connect 4 2 10 0;
#X connect 4 3 6 1;
#X connect 4 3 10 1;
#X connect 5 0 11 0;
#X connect 6 0 12 0;
#X connect 9 0 13 0;
#X connect 10 0 14 0;
#X connect 11 0 16 0;
#X connect 12 0 15 0;
#X connect 13 0 18 1;
#X connect 14 0 19 1;
#X connect 15 0 3 2;
#X connect 16 0 3 1;
#X connect 17 0 19 0;
#X connect 17 0 18 0;
#X connect 18 0 2 1;
#X connect 19 0 2 2;
#X restore 282 171 pd rectangle;
#X obj 282 100 color 1 1 1 0.5;
#X obj 282 79 gemhead 70;
#X obj 282 121 alpha;
#X msg 3 97 \$1 \$2 \$3 \$4 \$5 \$6 \$7 \$8;
#X msg 295 145 \$4 \$6 \$5 \$7;
#X obj 378 154 inlet;
#X connect 0 0 14 0;
#X connect 0 0 15 0;
#X connect 1 0 2 0;
#X connect 1 1 3 0;
#X connect 1 2 4 0;
#X connect 1 3 5 0;
#X connect 1 4 6 0;
#X connect 1 5 7 0;
#X connect 1 6 8 0;
#X connect 1 7 9 0;
#X connect 11 0 13 0;
#X connect 12 0 11 0;
#X connect 13 0 10 0;
#X connect 14 0 1 0;
#X connect 15 0 10 1;
#X connect 16 0 10 2;
#X restore 265 274 pd showblob;
#X obj 266 254 matrix;
#X msg 265 233 row \$1;
#X obj 270 177 * 1;
#X obj 267 204 + 1;
#X obj 240 344 outlet~;
#X obj 280 142 >=;
#X obj 253 111 inlet;
#X text 147 110 Number of objects;
#X obj 311 113 inlet;
#X text 351 109 number of this object;
#X obj 143 237 inlet;
#X text 112 219 matrix of blobs;
#X obj 321 149 - 1;
#X connect 0 0 6 0;
#X connect 1 0 0 0;
#X connect 1 1 0 1;
#X connect 1 2 0 2;
#X connect 2 0 1 0;
#X connect 3 0 2 0;
#X connect 4 0 5 0;
#X connect 5 0 3 0;
#X connect 7 0 4 0;
#X connect 7 0 1 1;
#X connect 8 0 7 0;
#X connect 10 0 7 1;
#X connect 10 0 14 0;
#X connect 12 0 2 1;
#X connect 14 0 4 1;
#X restore 548 524 pd showobject;
#X floatatom 623 503 5 3 3 0 - - -;
#X obj 224 362 pix_multiblob 3;
#X connect 3 0 5 0;
#X connect 4 0 5 0;
#X connect 5 0 12 0;
#X connect 5 0 45 0;
#X connect 6 0 5 1;
#X connect 7 0 8 0;
#X connect 8 0 30 0;
#X connect 9 0 13 0;
#X connect 10 0 3 0;
#X connect 11 0 9 0;
#X connect 12 0 11 0;
#X connect 13 0 14 0;
#X connect 15 0 16 0;
#X connect 16 0 7 0;
#X connect 16 0 10 0;
#X connect 20 0 21 0;
#X connect 20 0 6 0;
#X connect 32 0 33 0;
#X connect 33 0 35 1;
#X connect 33 0 37 1;
#X connect 33 0 43 1;
#X connect 35 0 29 0;
#X connect 35 0 29 1;
#X connect 36 0 35 2;
#X connect 37 0 28 0;
#X connect 37 0 28 1;
#X connect 37 0 27 0;
#X connect 38 0 37 2;
#X connect 39 0 40 0;
#X connect 40 0 27 0;
#X connect 43 0 42 0;
#X connect 43 0 42 1;
#X connect 44 0 43 2;
#X connect 45 1 32 0;
#X connect 45 1 35 0;
#X connect 45 1 37 0;
#X connect 45 1 43 0;
