#N canvas 193 29 1245 892 10;
#X declare -lib iemmatrix;
#X declare -lib Gem;
#X declare -lib iemmatrix;
#X declare -lib ggee;
#X declare -lib iemmatrix;
#X declare -lib ggee;
#X declare -lib iemmatrix;
#X declare -lib ggee;
#X declare -lib iemmatrix;
#X declare -lib ggee;
#X declare -lib iemmatrix;
#X declare -lib ggee;
#X declare -lib iemmatrix;
#X declare -lib ggee;
#X obj 8 10 cnv 15 400 40 empty empty Hacktable 20 12 0 24 -228992
-66577 0;
#X obj 680 9 gemwin_control;
#X obj 382 242 pix_grey;
#X msg 311 280 reset;
#X obj 382 297 pix_background;
#X msg 463 278 \$1 \$1 \$1;
#X obj 583 155 separator;
#X obj 583 176 pix_texture;
#X obj 765 399 pix_texture;
#X obj 382 219 separator;
#X obj 765 379 alpha;
#X obj 765 359 colourRGB 1 1 1 0.65;
#X obj 765 461 square 1.5;
#X obj 382 94 gemhead 10;
#X obj 382 138 pix_video;
#X text 484 235 Set noise threshold;
#X text 582 137 Render source video;
#X obj 469 255 hsl 128 15 0 1 0 1 empty empty empty -2 -8 0 10 -262130
-1 -1 2000 1;
#X floatatom 522 278 5 0 0 0 - - -;
#X text 21 64 1) make sure no one is in the camera picture;
#X text 21 85 2) click the [reset( message;
#X text 21 105 3) set the noise threshold for best results;
#N canvas 0 22 450 300 (subpatch) 0;
#X array fm-output 441 float 0;
#X coords 0 1.02 440 -1.02 200 130 1;
#X restore 82 668 graph;
#X text 119 800 --- 0.01 seconds ----;
#X obj 203 593 tabwrite~ fm-output;
#X obj 131 594 output~;
#X obj 583 216 square 4;
#X floatatom 748 515 5 0 0 0 - - -;
#X text 807 495 number of;
#X obj 225 570 metro 100;
#X text 790 510 detected objects;
#X obj 443 54 import iemmatrix;
#X msg 458 117 device 1;
#N canvas 162 133 570 420 serin 0;
#X obj 205 60 cnv 20 20 20 empty \$0-open-canvas 1 4 10 0 16 -233017
-1 0;
#X obj 60 61 hradio 18 1 1 8 empty empty empty 0 -6 0 8 -225271 -1
-1 1;
#X obj 60 13 inlet;
#X msg 200 202 label \$1;
#X obj 200 180 makefilename %d;
#X obj 59 108 int;
#X obj 59 337 outlet;
#X msg 201 306 set \$1 \$2;
#X obj 59 266 trigger bang anything;
#X obj 201 286 list;
#X obj 200 225 send \$0-open-canvas;
#X msg 60 210 device \$1;
#X connect 1 0 5 0;
#X connect 2 0 1 0;
#X connect 3 0 10 0;
#X connect 4 0 3 0;
#X connect 5 0 4 0;
#X connect 5 0 11 0;
#X connect 7 0 6 0;
#X connect 8 0 6 0;
#X connect 8 1 9 0;
#X connect 9 0 7 0;
#X connect 11 0 8 0;
#X coords 0 -1 1 1 165 20 1 60 60;
#X restore 458 93 pd serin;
#X obj 369 686 output~;
#X obj 311 341 s start;
#X obj 464 678 output~;
#X obj 554 672 output~;
#X obj 645 665 output~;
#X obj 732 655 output~;
#X obj 264 547 r start;
#X obj 748 495 mtx_size;
#X obj 566 53 import Gem;
#X obj 311 321 delay 50;
#X obj 311 300 bang;
#X obj 583 196 rotateXYZ 0 180 0;
#X obj 765 440 rotateXYZ 0 180 0;
#X obj 765 419 translateXYZ -2.4 -2.4 0.1;
#X text 763 340 Show pix_background output;
#X obj 177 329 separator;
#X obj 177 531 showobject 1;
#X obj 369 642 showobject 2;
#X obj 464 634 showobject 3;
#X obj 554 628 showobject 4;
#X obj 645 621 showobject 5;
#X obj 732 611 showobject 6;
#X obj 501 310 pix_opencv_bgstats;
#N canvas 59 24 450 300 vswitch 0;
#X obj 51 32 inlet;
#X obj 175 33 inlet;
#X obj 312 32 inlet;
#X obj 68 135 spigot 1;
#X obj 248 133 spigot 0;
#X obj 305 66 select 0;
#X obj 162 211 outlet;
#X msg 92 98 0;
#X msg 132 95 1;
#X msg 297 98 1;
#X msg 249 100 0;
#X connect 0 0 3 0;
#X connect 1 0 4 0;
#X connect 2 0 5 0;
#X connect 3 0 6 0;
#X connect 4 0 6 0;
#X connect 5 0 10 0;
#X connect 5 0 8 0;
#X connect 5 1 9 0;
#X connect 5 1 7 0;
#X connect 7 0 3 1;
#X connect 8 0 3 1;
#X connect 9 0 4 1;
#X connect 10 0 4 1;
#X restore 383 342 pd vswitch;
#X obj 446 321 tgl 15 0 empty empty empty 17 7 0 10 -262144 -1 -1 0
1;
#X obj 460 220 separator;
#X obj 492 335 pix_grey;
#X obj 382 380 pix_multiblob 6;
#X obj 759 233 / 100;
#X floatatom 800 235 5 0 0 0 - - -;
#X floatatom 764 269 5 0 0 0 - - -;
#X msg 703 268 erode \$1;
#X floatatom 787 306 5 0 0 0 - - -;
#X msg 717 304 minarea \$1;
#X text 831 311 ( default : 10x10 );
#X text 841 227 amount of time after which an object is deleted from
the foreground ( default : 0.1 seconds );
#X text 803 260 number of iterations of the erode-dilate filter;
#X text 804 270 to eliminate small forms and noise;
#X text 834 300 minimum size of foreground objects;
#X text 804 281 ( default : 2 );
#X msg 698 233 alpha \$1;
#X msg 524 116 dimen 320 240;
#X connect 2 0 4 0;
#X connect 3 0 4 0;
#X connect 3 0 44 0;
#X connect 3 0 56 0;
#X connect 4 0 57 0;
#X connect 5 0 4 1;
#X connect 6 0 7 0;
#X connect 7 0 45 0;
#X connect 8 0 47 0;
#X connect 9 0 2 0;
#X connect 10 0 8 0;
#X connect 11 0 10 0;
#X connect 13 0 14 0;
#X connect 14 0 6 0;
#X connect 14 0 9 0;
#X connect 14 0 49 0;
#X connect 14 0 59 0;
#X connect 17 0 18 0;
#X connect 17 0 5 0;
#X connect 27 0 50 2;
#X connect 27 0 51 2;
#X connect 27 0 52 2;
#X connect 27 0 53 2;
#X connect 27 0 54 2;
#X connect 27 0 55 2;
#X connect 29 0 24 0;
#X connect 32 0 14 0;
#X connect 33 0 32 0;
#X connect 40 0 29 0;
#X connect 41 0 27 0;
#X connect 43 0 35 0;
#X connect 44 0 43 0;
#X connect 45 0 26 0;
#X connect 46 0 12 0;
#X connect 47 0 46 0;
#X connect 49 0 50 0;
#X connect 49 0 51 0;
#X connect 49 0 52 0;
#X connect 49 0 53 0;
#X connect 49 0 54 0;
#X connect 49 0 55 0;
#X connect 50 0 25 0;
#X connect 50 0 25 1;
#X connect 50 0 24 0;
#X connect 51 0 34 0;
#X connect 51 0 34 1;
#X connect 52 0 36 0;
#X connect 52 0 36 1;
#X connect 53 0 37 0;
#X connect 53 0 37 1;
#X connect 54 0 38 0;
#X connect 54 0 38 1;
#X connect 55 0 39 0;
#X connect 55 0 39 1;
#X connect 56 0 60 0;
#X connect 57 0 11 0;
#X connect 57 0 61 0;
#X connect 58 0 57 2;
#X connect 59 0 56 0;
#X connect 60 0 57 1;
#X connect 61 1 41 0;
#X connect 61 1 50 1;
#X connect 61 1 51 1;
#X connect 61 1 52 1;
#X connect 61 1 53 1;
#X connect 61 1 54 1;
#X connect 61 1 55 1;
#X connect 62 0 74 0;
#X connect 63 0 62 0;
#X connect 63 0 62 1;
#X connect 64 0 65 0;
#X connect 65 0 56 0;
#X connect 66 0 67 0;
#X connect 67 0 56 0;
#X connect 74 0 56 0;
#X connect 75 0 14 0;
