#N canvas 706 116 987 892 10;
#X declare -lib Gem;
#X declare -lib iemmatrix;
#X obj 8 10 cnv 15 400 40 empty empty Hacktable 20 12 0 24 -228992
-66577 0;
#X obj 465 16 gemwin_control;
#X obj 551 55 import Gem;
#X obj 236 242 pix_grey;
#X msg 261 270 reset;
#X obj 236 298 pix_background;
#X msg 317 278 \$1 \$1 \$1;
#X obj 437 182 separator;
#X obj 437 203 pix_texture;
#X obj 433 366 pix_texture;
#X obj 236 219 separator;
#X obj 433 346 alpha;
#X obj 433 326 colourRGB 1 1 1 0.65;
#X obj 433 386 translateXYZ -2.4 -2.4 0;
#X obj 433 406 square 1.5;
#X obj 382 94 gemhead 10;
#X obj 382 138 pix_video;
#X text 431 307 Show pix_background output;
#X text 413 276 Set noise threshold;
#X text 436 164 Render source video;
#X obj 323 255 hsl 128 15 0 1 0 1 empty empty empty -2 -8 0 10 -262130
-1 -1 3900 1;
#X floatatom 376 278 5 0 0 0 - - -;
#X text 21 64 1) make sure no one is in the camera picture;
#X text 21 85 2) click the [reset( message;
#X text 21 105 3) set the noise threshold for best results;
#N canvas 0 22 450 300 (subpatch) 0;
#X array fm-output 441 float 0;
#X coords 0 1.02 440 -1.02 200 130 1;
#X restore 59 651 graph;
#X text 90 785 --- 0.01 seconds ----;
#X obj 167 576 tabwrite~ fm-output;
#X obj 95 577 output~;
#X obj 336 620 output~;
#X obj 437 224 square 4;
#X floatatom 268 443 5 0 0 0 - - -;
#X text 261 466 number of;
#X floatatom 409 568 5 2 2 0 - - -;
#X msg 230 529 bang;
#X obj 189 553 metro 100;
#X text 241 478 detected objects;
#X obj 447 604 output~;
#X floatatom 517 554 5 3 3 0 - - -;
#X obj 443 54 import iemmatrix;
#X obj 268 419 mtx_size;
#X floatatom 213 496 5 1 1 0 - - -;
#X obj 140 514 showobject;
#X obj 351 588 showobject;
#X obj 460 574 showobject;
#X text 20 125 4) set the numbers above [showobject];
#X obj 559 582 output~;
#X floatatom 629 532 5 4 4 0 - - -;
#X obj 572 552 showobject;
#X obj 672 563 output~;
#X floatatom 742 512 5 5 5 0 - - -;
#X obj 685 533 showobject;
#X obj 236 362 pix_multiblob;
#X connect 3 0 5 0;
#X connect 4 0 5 0;
#X connect 5 0 12 0;
#X connect 5 0 52 0;
#X connect 6 0 5 1;
#X connect 7 0 8 0;
#X connect 8 0 30 0;
#X connect 9 0 13 0;
#X connect 10 0 3 0;
#X connect 11 0 9 0;
#X connect 12 0 11 0;
#X connect 13 0 14 0;
#X connect 15 0 16 0;
#X connect 16 0 7 0;
#X connect 16 0 10 0;
#X connect 20 0 21 0;
#X connect 20 0 6 0;
#X connect 31 0 42 1;
#X connect 31 0 43 1;
#X connect 31 0 44 1;
#X connect 31 0 48 1;
#X connect 31 0 51 1;
#X connect 33 0 43 2;
#X connect 34 0 35 0;
#X connect 35 0 27 0;
#X connect 38 0 44 2;
#X connect 40 0 31 0;
#X connect 41 0 42 2;
#X connect 42 0 28 0;
#X connect 42 0 28 1;
#X connect 42 0 27 0;
#X connect 43 0 29 0;
#X connect 43 0 29 1;
#X connect 44 0 37 0;
#X connect 44 0 37 1;
#X connect 47 0 48 2;
#X connect 48 0 46 0;
#X connect 48 0 46 1;
#X connect 50 0 51 2;
#X connect 51 0 49 0;
#X connect 51 0 49 1;
#X connect 52 1 40 0;
#X connect 52 1 42 0;
#X connect 52 1 43 0;
#X connect 52 1 44 0;
#X connect 52 1 48 0;
#X connect 52 1 51 0;
