#N canvas 773 83 1080 842 10;
#X declare -lib Gem;
#X obj 8 10 cnv 15 400 40 empty empty Hacktable 20 12 0 24 -228992
-66577 0;
#X obj 465 16 gemwin_control;
#X obj 466 60 import Gem;
#X obj 179 223 pix_grey;
#X msg 204 251 reset;
#X obj 179 280 pix_background;
#X msg 272 259 \$1 \$1 \$1;
#X obj 123 316 pix_blob;
#N canvas 10 40 620 460 cursor 0;
#X obj 17 14 inlet;
#X obj 89 18 inlet;
#X obj 101 346 translateXYZ;
#X text 63 148 0.64;
#X text 37 151 1;
#X obj 23 63 t f f;
#X obj 37 176 -;
#X text 62 177 X-Range;
#X text 196 176 Y-Range;
#X obj 63 240 expr (8/$f1);
#X obj 33 241 -;
#X obj 51 267 *;
#X obj 29 95 max 0;
#X obj 71 95 min 10;
#X obj 59 132 f;
#X obj 33 131 f;
#X obj 52 293 - 4;
#X text 193 146 0.64;
#X text 167 149 1;
#X obj 153 61 t f f;
#X obj 167 174 -;
#X obj 193 238 expr (8/$f1);
#X obj 163 239 -;
#X obj 181 265 *;
#X obj 159 93 max 0;
#X obj 201 93 min 10;
#X obj 189 130 f;
#X obj 163 129 f;
#X text 188 171 comment;
#X obj 154 298 expr (-1*$f1)+4;
#X obj 293 27 inlet;
#X obj 283 63 * 10;
#X obj 94 320 gemhead 15;
#X obj 157 509 circle 0.1;
#X obj 17 423 separator;
#X obj 87 423 separator;
#X obj 17 484 rectangle 0.2 0.01;
#X obj 157 423 separator;
#X msg 185 478 draw line;
#X obj 185 457 loadbang;
#X obj 77 386 colorRGB 1 0 0 1;
#X obj 17 462 rectangle 0.01 0.2;
#X msg 256 478 width \$1;
#X obj 296 342 int;
#X obj 275 413 + 1;
#X connect 0 0 5 0;
#X connect 1 0 19 0;
#X connect 2 0 40 0;
#X connect 5 0 10 0;
#X connect 5 0 12 0;
#X connect 5 1 13 0;
#X connect 6 0 9 0;
#X connect 9 0 11 1;
#X connect 10 0 11 0;
#X connect 11 0 16 0;
#X connect 12 0 15 0;
#X connect 13 0 14 0;
#X connect 14 0 6 1;
#X connect 14 0 10 1;
#X connect 14 0 13 1;
#X connect 15 0 6 0;
#X connect 15 0 12 1;
#X connect 16 0 2 1;
#X connect 19 0 22 0;
#X connect 19 0 24 0;
#X connect 19 1 25 0;
#X connect 20 0 21 0;
#X connect 21 0 23 1;
#X connect 22 0 23 0;
#X connect 23 0 29 0;
#X connect 24 0 27 0;
#X connect 25 0 26 0;
#X connect 26 0 20 1;
#X connect 26 0 22 1;
#X connect 26 0 25 1;
#X connect 27 0 20 0;
#X connect 27 0 24 1;
#X connect 29 0 2 2;
#X connect 30 0 31 0;
#X connect 31 0 33 1;
#X connect 31 0 43 0;
#X connect 32 0 2 0;
#X connect 34 0 41 0;
#X connect 35 0 36 0;
#X connect 37 0 33 0;
#X connect 38 0 33 0;
#X connect 39 0 38 0;
#X connect 40 0 34 0;
#X connect 40 0 35 0;
#X connect 40 0 37 0;
#X connect 42 0 33 0;
#X connect 43 0 44 0;
#X connect 44 0 42 0;
#X restore 72 368 pd cursor;
#X obj 392 163 separator;
#X obj 392 184 pix_texture;
#X obj 392 205 square 4;
#X obj 378 368 pix_texture;
#X obj 179 200 separator;
#X obj 378 348 alpha;
#X obj 378 328 colourRGB 1 1 1 0.65;
#X obj 378 388 translateXYZ -2.4 -2.4 0;
#X obj 378 408 square 1.5;
#X obj 337 98 gemhead 10;
#X obj 337 119 pix_video;
#X text 376 309 Show pix_background output;
#X text 48 388 Show centroid/size;
#X text 368 257 Set noise threshold;
#X text 391 145 Render source video;
#X obj 275 237 hsl 128 15 0 1 0 1 empty empty empty -2 -8 0 10 -262130
-1 -1 3000 1;
#X floatatom 331 259 5 0 0 0 - - -;
#X text 21 64 1) make sure no one is in the camera picture;
#X text 21 84 2) click the [reset( message;
#X text 21 104 3) set the noise threshold for best results;
#X obj 362 580 *~;
#X obj 207 628 +~;
#N canvas 0 22 450 300 (subpatch) 0;
#X array fm-output 441 float 0;
#X coords 0 1.02 440 -1.02 200 130 1;
#X restore 565 480 graph;
#X msg 282 668 bang;
#X text 324 668 <-- click to graph;
#X obj 282 692 tabwrite~ fm-output;
#X text 136 430 carrier;
#X text 135 448 frequency;
#X text 233 417 frequency;
#X text 242 403 modulation;
#X obj 206 672 osc~;
#X text 90 654 "carrier";
#X text 72 672 oscillator -->;
#X text 85 589 add modulator;
#X text 84 607 to carrier;
#X text 82 626 frequency -->;
#X text 337 468 index;
#X text 339 449 modulation;
#X obj 297 548 osc~;
#X text 569 612 --- 0.01 seconds ----;
#X obj 205 710 output~;
#X obj 201 437 * 500;
#X obj 251 437 * 200;
#X obj 341 632 metro 100;
#X msg 413 600 bang;
#X floatatom 201 533 5 0 0 0 - - -;
#X floatatom 277 502 5 0 0 0 - - -;
#X floatatom 359 523 5 0 0 0 - - -;
#X obj 301 438 * 100;
#X connect 3 0 5 0;
#X connect 4 0 5 0;
#X connect 5 0 7 0;
#X connect 5 0 15 0;
#X connect 6 0 5 1;
#X connect 7 1 8 0;
#X connect 7 1 50 0;
#X connect 7 2 8 1;
#X connect 7 2 51 0;
#X connect 7 3 8 2;
#X connect 7 3 57 0;
#X connect 9 0 10 0;
#X connect 10 0 11 0;
#X connect 12 0 16 0;
#X connect 13 0 3 0;
#X connect 14 0 12 0;
#X connect 15 0 14 0;
#X connect 16 0 17 0;
#X connect 18 0 19 0;
#X connect 19 0 9 0;
#X connect 19 0 13 0;
#X connect 24 0 25 0;
#X connect 24 0 6 0;
#X connect 29 0 30 1;
#X connect 30 0 39 0;
#X connect 32 0 34 0;
#X connect 39 0 34 0;
#X connect 39 0 49 0;
#X connect 39 0 49 1;
#X connect 47 0 29 0;
#X connect 50 0 54 0;
#X connect 51 0 55 0;
#X connect 52 0 32 0;
#X connect 53 0 52 0;
#X connect 54 0 30 0;
#X connect 55 0 47 0;
#X connect 56 0 29 0;
#X connect 57 0 56 0;
