#N canvas 688 143 1147 915 10;
#X declare -lib Gem;
#X declare -lib zexy;
#X obj 8 10 cnv 15 400 40 empty empty Hacktable 20 12 0 24 -228992
-66577 0;
#X obj 465 16 gemwin_control;
#X obj 466 60 import Gem;
#X obj 224 242 pix_grey;
#X msg 249 270 reset;
#X obj 224 299 pix_background;
#X msg 317 278 \$1 \$1 \$1;
#X obj 437 182 separator;
#X obj 437 203 pix_texture;
#X obj 437 224 square 4;
#X obj 433 366 pix_texture;
#X obj 224 219 separator;
#X obj 433 346 alpha;
#X obj 433 326 colourRGB 1 1 1 0.65;
#X obj 433 386 translateXYZ -2.4 -2.4 0;
#X obj 433 406 square 1.5;
#X obj 382 94 gemhead 10;
#X obj 382 138 pix_video;
#X text 431 307 Show pix_background output;
#X text 413 276 Set noise threshold;
#X text 436 164 Render source video;
#X obj 323 256 hsl 128 15 0 1 0 1 empty empty empty -2 -8 0 10 -262130
-1 -1 4200 1;
#X floatatom 376 278 5 0 0 0 - - -;
#X text 21 64 1) make sure no one is in the camera picture;
#X text 21 85 2) click the [reset( message;
#X text 21 105 3) set the noise threshold for best results;
#N canvas 0 22 450 300 (subpatch) 0;
#X array fm-output 441 float 0;
#X coords 0 1.02 440 -1.02 200 130 1;
#X restore 24 664 graph;
#X text 54 799 --- 0.01 seconds ----;
#X msg 480 92 dimen 1280 720;
#X msg 480 117 dimen 256 256;
#N canvas 0 22 450 300 showblob 0;
#X obj 3 69 inlet blobinformation;
#X obj 3 121 unpack 0 0 0 0 0 0 0 0;
#X obj 3 150 outlet weightedX;
#X obj 24 170 outlet weightedY;
#X obj 45 190 outlet weightedSize;
#X obj 92 219 outlet minX;
#X obj 113 239 outlet minY;
#X obj 179 219 outlet maxX;
#X obj 196 239 outlet maxY;
#X obj 284 221 outlet size;
#N canvas 453 324 450 300 rectangle 0;
#X obj 68 75 inlet;
#X obj 215 -1 inlet;
#X obj 68 257 rectangle;
#X obj 68 234 translateXYZ;
#X obj 215 69 unpack 0 0 0 0;
#X obj 215 94 +;
#X obj 254 95 +;
#X text 248 125 0..2;
#X text 250 145 -1..+1;
#X obj 340 148 -;
#X obj 377 149 -;
#X obj 193 124 - 1;
#X obj 222 123 - 1;
#X obj 340 180 * -4;
#X obj 377 180 * -4;
#X obj 222 146 * -4;
#X obj 193 147 * 4;
#X connect 0 0 3 0;
#X connect 1 0 4 0;
#X connect 3 0 2 0;
#X connect 4 0 5 0;
#X connect 4 0 9 0;
#X connect 4 1 5 1;
#X connect 4 1 9 1;
#X connect 4 2 6 0;
#X connect 4 2 10 0;
#X connect 4 3 6 1;
#X connect 4 3 10 1;
#X connect 5 0 11 0;
#X connect 6 0 12 0;
#X connect 9 0 13 0;
#X connect 10 0 14 0;
#X connect 11 0 16 0;
#X connect 12 0 15 0;
#X connect 13 0 2 1;
#X connect 14 0 2 2;
#X connect 15 0 3 2;
#X connect 16 0 3 1;
#X restore 282 171 pd rectangle;
#X obj 282 100 color 1 1 1 0.5;
#X obj 282 79 gemhead 70;
#X obj 282 121 alpha;
#X msg 3 97 \$3 \$4 \$5 \$6 \$7 \$8 \$9 \$10;
#X msg 361 147 \$6 \$8 \$7 \$9;
#X connect 0 0 14 0;
#X connect 0 0 15 0;
#X connect 1 0 2 0;
#X connect 1 1 3 0;
#X connect 1 2 4 0;
#X connect 1 3 5 0;
#X connect 1 4 6 0;
#X connect 1 5 7 0;
#X connect 1 6 8 0;
#X connect 1 7 9 0;
#X connect 11 0 13 0;
#X connect 12 0 11 0;
#X connect 13 0 10 0;
#X connect 14 0 1 0;
#X connect 15 0 10 1;
#X restore 130 451 pd showblob 1;
#N canvas 0 22 529 457 makesound 0;
#X obj 106 255 *~;
#X obj -49 303 +~;
#X text -187 116 carrier;
#X text -199 130 frequency;
#X obj -50 347 osc~;
#X text -138 330 "carrier";
#X text -156 348 oscillator -->;
#X text -143 265 add modulator;
#X text -144 283 to carrier;
#X text -146 302 frequency -->;
#X text 99 126 index;
#X text 101 107 modulation;
#X obj 41 223 osc~;
#X obj -5 112 * 200;
#X floatatom -98 219 5 0 0 0 - - -;
#X floatatom 21 177 5 0 0 0 - - -;
#X floatatom 103 198 5 0 0 0 - - -;
#X obj -139 122 * 500;
#X obj 45 113 * 10000;
#X obj -48 390 outlet~;
#X obj -142 62 inlet;
#X obj -13 56 inlet;
#X obj 53 70 inlet;
#X obj -135 162 + 150;
#X text -83 118 frequency;
#X text -74 104 modulation;
#X connect 0 0 1 1;
#X connect 1 0 4 0;
#X connect 4 0 19 0;
#X connect 12 0 0 0;
#X connect 13 0 15 0;
#X connect 14 0 1 0;
#X connect 15 0 12 0;
#X connect 16 0 0 0;
#X connect 17 0 23 0;
#X connect 18 0 16 0;
#X connect 20 0 17 0;
#X connect 21 0 13 0;
#X connect 22 0 18 0;
#X connect 23 0 14 0;
#X restore 105 486 pd makesound;
#X msg 125 587 bang;
#X text 227 532 <-- click to graph;
#X obj 125 611 tabwrite~ fm-output;
#X obj 33 589 output~;
#X obj 150 557 metro 100;
#X msg 185 530 bang;
#N canvas 0 22 450 300 (subpatch) 0;
#X array fm-output2 441 float 0;
#X coords 0 1.02 440 -1.02 200 130 1;
#X restore 312 700 graph;
#X text 342 835 --- 0.01 seconds ----;
#N canvas 0 22 529 457 makesound 0;
#X obj 106 255 *~;
#X obj -49 303 +~;
#X text -187 116 carrier;
#X text -199 130 frequency;
#X obj -50 347 osc~;
#X text -138 330 "carrier";
#X text -156 348 oscillator -->;
#X text -143 265 add modulator;
#X text -144 283 to carrier;
#X text -146 302 frequency -->;
#X text 99 126 index;
#X text 101 107 modulation;
#X obj 41 223 osc~;
#X obj -5 112 * 200;
#X floatatom -98 219 5 0 0 0 - - -;
#X floatatom 21 177 5 0 0 0 - - -;
#X floatatom 103 198 5 0 0 0 - - -;
#X obj -139 122 * 500;
#X obj 45 113 * 10000;
#X obj -48 390 outlet~;
#X obj -142 62 inlet;
#X obj -13 56 inlet;
#X obj 53 70 inlet;
#X obj -135 162 + 150;
#X text -83 118 frequency;
#X text -74 104 modulation;
#X connect 0 0 1 1;
#X connect 1 0 4 0;
#X connect 4 0 19 0;
#X connect 12 0 0 0;
#X connect 13 0 15 0;
#X connect 14 0 1 0;
#X connect 15 0 12 0;
#X connect 16 0 0 0;
#X connect 17 0 23 0;
#X connect 18 0 16 0;
#X connect 20 0 17 0;
#X connect 21 0 13 0;
#X connect 22 0 18 0;
#X connect 23 0 14 0;
#X restore 393 522 pd makesound;
#X msg 413 623 bang;
#X text 515 568 <-- click to graph;
#X obj 321 625 output~;
#X obj 438 593 metro 100;
#X msg 473 566 bang;
#N canvas 0 22 450 300 showblob 0;
#X obj 3 69 inlet blobinformation;
#X obj 3 121 unpack 0 0 0 0 0 0 0 0;
#X obj 3 150 outlet weightedX;
#X obj 24 170 outlet weightedY;
#X obj 45 190 outlet weightedSize;
#X obj 92 219 outlet minX;
#X obj 113 239 outlet minY;
#X obj 179 219 outlet maxX;
#X obj 196 239 outlet maxY;
#X obj 284 221 outlet size;
#N canvas 453 324 450 300 rectangle 0;
#X obj 68 75 inlet;
#X obj 215 -1 inlet;
#X obj 68 257 rectangle;
#X obj 68 234 translateXYZ;
#X obj 215 69 unpack 0 0 0 0;
#X obj 215 94 +;
#X obj 254 95 +;
#X text 248 125 0..2;
#X text 250 145 -1..+1;
#X obj 340 148 -;
#X obj 377 149 -;
#X obj 193 124 - 1;
#X obj 222 123 - 1;
#X obj 340 180 * -4;
#X obj 377 180 * -4;
#X obj 222 146 * -4;
#X obj 193 147 * 4;
#X connect 0 0 3 0;
#X connect 1 0 4 0;
#X connect 3 0 2 0;
#X connect 4 0 5 0;
#X connect 4 0 9 0;
#X connect 4 1 5 1;
#X connect 4 1 9 1;
#X connect 4 2 6 0;
#X connect 4 2 10 0;
#X connect 4 3 6 1;
#X connect 4 3 10 1;
#X connect 5 0 11 0;
#X connect 6 0 12 0;
#X connect 9 0 13 0;
#X connect 10 0 14 0;
#X connect 11 0 16 0;
#X connect 12 0 15 0;
#X connect 13 0 2 1;
#X connect 14 0 2 2;
#X connect 15 0 3 2;
#X connect 16 0 3 1;
#X restore 282 171 pd rectangle;
#X obj 282 100 color 1 1 1 0.5;
#X obj 282 79 gemhead 70;
#X obj 282 121 alpha;
#X msg 3 97 \$1 \$2 \$3 \$4 \$5 \$6 \$7 \$8;
#X msg 361 147 \$4 \$6 \$5 \$7;
#X connect 0 0 14 0;
#X connect 0 0 15 0;
#X connect 1 0 2 0;
#X connect 1 1 3 0;
#X connect 1 2 4 0;
#X connect 1 3 5 0;
#X connect 1 4 6 0;
#X connect 1 5 7 0;
#X connect 1 6 8 0;
#X connect 1 7 9 0;
#X connect 11 0 13 0;
#X connect 12 0 11 0;
#X connect 13 0 10 0;
#X connect 14 0 1 0;
#X connect 15 0 10 1;
#X restore 445 467 pd showblob 2;
#X obj 413 647 tabwrite~ fm-output2;
#X obj 119 366 pix_multiblob 2;
#X obj 537 59 import zexy;
#X obj 131 422 matrix;
#X obj 332 428 matrix;
#X msg 130 393 row 1;
#X msg 329 388 row 2;
#N canvas 0 22 450 300 showblob 0;
#X obj 3 69 inlet blobinformation;
#X obj 3 121 unpack 0 0 0 0 0 0 0 0;
#X obj 3 150 outlet weightedX;
#X obj 24 170 outlet weightedY;
#X obj 45 190 outlet weightedSize;
#X obj 92 219 outlet minX;
#X obj 113 239 outlet minY;
#X obj 179 219 outlet maxX;
#X obj 196 239 outlet maxY;
#X obj 284 221 outlet size;
#N canvas 453 324 450 300 rectangle 0;
#X obj 68 75 inlet;
#X obj 215 -1 inlet;
#X obj 68 257 rectangle;
#X obj 68 234 translateXYZ;
#X obj 215 69 unpack 0 0 0 0;
#X obj 215 94 +;
#X obj 254 95 +;
#X text 248 125 0..2;
#X text 250 145 -1..+1;
#X obj 340 148 -;
#X obj 377 149 -;
#X obj 193 124 - 1;
#X obj 222 123 - 1;
#X obj 340 180 * -4;
#X obj 377 180 * -4;
#X obj 222 146 * -4;
#X obj 193 147 * 4;
#X connect 0 0 3 0;
#X connect 1 0 4 0;
#X connect 3 0 2 0;
#X connect 4 0 5 0;
#X connect 4 0 9 0;
#X connect 4 1 5 1;
#X connect 4 1 9 1;
#X connect 4 2 6 0;
#X connect 4 2 10 0;
#X connect 4 3 6 1;
#X connect 4 3 10 1;
#X connect 5 0 11 0;
#X connect 6 0 12 0;
#X connect 9 0 13 0;
#X connect 10 0 14 0;
#X connect 11 0 16 0;
#X connect 12 0 15 0;
#X connect 13 0 2 1;
#X connect 14 0 2 2;
#X connect 15 0 3 2;
#X connect 16 0 3 1;
#X restore 282 171 pd rectangle;
#X obj 282 100 color 1 1 1 0.5;
#X obj 282 79 gemhead 70;
#X obj 282 121 alpha;
#X msg 3 97 \$1 \$2 \$3 \$4 \$5 \$6 \$7 \$8;
#X msg 361 147 \$4 \$6 \$5 \$7;
#X connect 0 0 14 0;
#X connect 0 0 15 0;
#X connect 1 0 2 0;
#X connect 1 1 3 0;
#X connect 1 2 4 0;
#X connect 1 3 5 0;
#X connect 1 4 6 0;
#X connect 1 5 7 0;
#X connect 1 6 8 0;
#X connect 1 7 9 0;
#X connect 11 0 13 0;
#X connect 12 0 11 0;
#X connect 13 0 10 0;
#X connect 14 0 1 0;
#X connect 15 0 10 1;
#X restore 743 455 pd showblob 1;
#X connect 3 0 5 0;
#X connect 4 0 5 0;
#X connect 5 0 13 0;
#X connect 5 0 48 0;
#X connect 6 0 5 1;
#X connect 7 0 8 0;
#X connect 8 0 9 0;
#X connect 10 0 14 0;
#X connect 11 0 3 0;
#X connect 12 0 10 0;
#X connect 13 0 12 0;
#X connect 14 0 15 0;
#X connect 16 0 17 0;
#X connect 17 0 7 0;
#X connect 17 0 11 0;
#X connect 21 0 22 0;
#X connect 21 0 6 0;
#X connect 28 0 17 0;
#X connect 29 0 17 0;
#X connect 30 0 31 0;
#X connect 30 1 31 1;
#X connect 30 2 31 2;
#X connect 31 0 35 0;
#X connect 31 0 35 1;
#X connect 31 0 34 0;
#X connect 32 0 34 0;
#X connect 36 0 32 0;
#X connect 37 0 36 0;
#X connect 40 0 43 0;
#X connect 40 0 43 1;
#X connect 40 0 47 0;
#X connect 41 0 47 0;
#X connect 44 0 41 0;
#X connect 45 0 44 0;
#X connect 46 0 40 0;
#X connect 46 1 40 1;
#X connect 46 2 40 2;
#X connect 48 1 30 0;
#X connect 51 0 46 0;
#X connect 52 0 50 0;
#X connect 53 0 51 0;
