#N canvas 628 82 987 892 10;
#X declare -lib iemmatrix;
#X declare -lib Gem;
#X declare -lib iemmatrix;
#X declare -lib ggee;
#X declare -lib ggee;
#X declare -lib iemmatrix;
#X declare -lib ggee;
#X declare -lib iemmatrix;
#X declare -lib ggee;
#X declare -lib iemmatrix;
#X declare -lib ggee;
#X declare -lib iemmatrix;
#X declare -lib ggee;
#X declare -lib iemmatrix;
#X obj 8 10 cnv 15 400 40 empty empty Hacktable 20 12 0 24 -228992
-66577 0;
#X obj 680 9 gemwin_control;
#X obj 382 242 pix_grey;
#X msg 311 280 reset;
#X obj 382 297 pix_background;
#X msg 463 278 \$1 \$1 \$1;
#X obj 583 155 separator;
#X obj 583 176 pix_texture;
#X obj 584 354 pix_texture;
#X obj 382 219 separator;
#X obj 584 334 alpha;
#X obj 584 314 colourRGB 1 1 1 0.65;
#X obj 584 416 square 1.5;
#X obj 382 94 gemhead 10;
#X obj 382 138 pix_video;
#X text 559 276 Set noise threshold;
#X text 582 137 Render source video;
#X obj 469 255 hsl 128 15 0 1 0 1 empty empty empty -2 -8 0 10 -262130
-1 -1 1900 1;
#X floatatom 522 278 5 0 0 0 - - -;
#X text 21 64 1) make sure no one is in the camera picture;
#X text 21 85 2) click the [reset( message;
#X text 21 105 3) set the noise threshold for best results;
#N canvas 0 22 450 300 (subpatch) 0;
#X array fm-output 441 float 0;
#X coords 0 1.02 440 -1.02 200 130 1;
#X restore 82 668 graph;
#X text 119 800 --- 0.01 seconds ----;
#X obj 203 593 tabwrite~ fm-output;
#X obj 131 594 output~;
#X obj 583 216 square 4;
#X floatatom 748 515 5 0 0 0 - - -;
#X text 807 495 number of;
#X obj 225 570 metro 100;
#X text 790 510 detected objects;
#X obj 443 54 import iemmatrix;
#X msg 458 117 device 0;
#N canvas 162 133 570 420 serin 0;
#X obj 205 60 cnv 20 20 20 empty \$0-open-canvas 0 4 10 0 16 -233017
-1 0;
#X obj 60 61 hradio 18 1 1 8 empty empty empty 0 -6 0 8 -225271 -1
-1 0;
#X obj 60 13 inlet;
#X msg 200 202 label \$1;
#X obj 200 180 makefilename %d;
#X obj 59 108 int;
#X obj 59 337 outlet;
#X msg 201 306 set \$1 \$2;
#X obj 59 266 trigger bang anything;
#X obj 201 286 list;
#X obj 200 225 send \$0-open-canvas;
#X msg 60 210 device \$1;
#X connect 1 0 5 0;
#X connect 2 0 1 0;
#X connect 3 0 10 0;
#X connect 4 0 3 0;
#X connect 5 0 4 0;
#X connect 5 0 11 0;
#X connect 7 0 6 0;
#X connect 8 0 6 0;
#X connect 8 1 9 0;
#X connect 9 0 7 0;
#X connect 11 0 8 0;
#X coords 0 -1 1 1 165 20 1 60 60;
#X restore 458 93 pd serin;
#X obj 369 686 output~;
#X obj 311 341 s start;
#X obj 464 678 output~;
#X obj 554 672 output~;
#X obj 645 665 output~;
#X obj 732 655 output~;
#X obj 264 547 r start;
#X obj 748 495 mtx_size;
#X obj 566 53 import Gem;
#X obj 311 321 delay 50;
#X obj 311 300 bang;
#X obj 583 196 rotateXYZ 0 180 0;
#X obj 584 395 rotateXYZ 0 180 0;
#X obj 584 374 translateXYZ -2.4 -2.4 0.1;
#X text 582 295 Show pix_background output;
#X obj 177 329 separator;
#X obj 177 531 showobject 1;
#X obj 382 380 pix_multiblob 3;
#X obj 369 642 showobject 2;
#X obj 464 634 showobject 3;
#X obj 554 628 showobject 4;
#X obj 645 621 showobject 5;
#X obj 732 611 showobject 6;
#X connect 2 0 4 0;
#X connect 3 0 4 0;
#X connect 3 0 44 0;
#X connect 4 0 11 0;
#X connect 4 0 51 0;
#X connect 5 0 4 1;
#X connect 6 0 7 0;
#X connect 7 0 45 0;
#X connect 8 0 47 0;
#X connect 9 0 2 0;
#X connect 10 0 8 0;
#X connect 11 0 10 0;
#X connect 13 0 14 0;
#X connect 14 0 6 0;
#X connect 14 0 9 0;
#X connect 14 0 49 0;
#X connect 17 0 18 0;
#X connect 17 0 5 0;
#X connect 27 0 50 2;
#X connect 27 0 52 2;
#X connect 27 0 53 2;
#X connect 27 0 54 2;
#X connect 27 0 55 2;
#X connect 27 0 56 2;
#X connect 29 0 24 0;
#X connect 32 0 14 0;
#X connect 33 0 32 0;
#X connect 40 0 29 0;
#X connect 41 0 27 0;
#X connect 43 0 35 0;
#X connect 44 0 43 0;
#X connect 45 0 26 0;
#X connect 46 0 12 0;
#X connect 47 0 46 0;
#X connect 49 0 50 0;
#X connect 49 0 52 0;
#X connect 49 0 53 0;
#X connect 49 0 54 0;
#X connect 49 0 55 0;
#X connect 49 0 56 0;
#X connect 50 0 25 0;
#X connect 50 0 25 1;
#X connect 50 0 24 0;
#X connect 51 1 41 0;
#X connect 51 1 50 1;
#X connect 51 1 52 1;
#X connect 51 1 53 1;
#X connect 51 1 54 1;
#X connect 51 1 55 1;
#X connect 51 1 56 1;
#X connect 52 0 34 0;
#X connect 52 0 34 1;
#X connect 53 0 36 0;
#X connect 53 0 36 1;
#X connect 54 0 37 0;
#X connect 54 0 37 1;
#X connect 55 0 38 0;
#X connect 55 0 38 1;
#X connect 56 0 39 0;
#X connect 56 0 39 1;
