#N canvas 0 22 582 493 10;
#X obj 116 265 *~;
#X obj -39 313 +~;
#X text -177 126 carrier;
#X text -189 140 frequency;
#X obj -40 357 osc~;
#X text -128 340 "carrier";
#X text -146 358 oscillator -->;
#X text -133 275 add modulator;
#X text -134 293 to carrier;
#X text -136 312 frequency -->;
#X text 109 136 index;
#X text 111 117 modulation;
#X obj 51 233 osc~;
#X obj 5 122 * 200;
#X floatatom -88 229 5 0 0 0 - - -;
#X floatatom 31 187 5 0 0 0 - - -;
#X floatatom 113 208 5 0 0 0 - - -;
#X obj -129 132 * 500;
#X obj 55 123 * 10000;
#X obj -38 400 outlet~;
#X obj -132 72 inlet;
#X obj -3 66 inlet;
#X obj 63 80 inlet;
#X obj -125 172 + 150;
#X text -73 128 frequency;
#X text -64 114 modulation;
#X obj 194 133 inlet;
#X text 234 131 On/Off;
#X obj -91 201 *;
#X obj 23 155 *;
#X obj 120 170 *;
#X connect 0 0 1 1;
#X connect 1 0 4 0;
#X connect 4 0 19 0;
#X connect 12 0 0 0;
#X connect 13 0 29 1;
#X connect 14 0 1 0;
#X connect 15 0 12 0;
#X connect 16 0 0 0;
#X connect 17 0 23 0;
#X connect 18 0 30 1;
#X connect 20 0 17 0;
#X connect 21 0 13 0;
#X connect 22 0 18 0;
#X connect 23 0 28 1;
#X connect 26 0 28 0;
#X connect 26 0 29 0;
#X connect 26 0 30 0;
#X connect 28 0 14 0;
#X connect 29 0 15 0;
#X connect 30 0 16 0;
