#N canvas 712 381 1070 623 10;
#X text -223 87 carrier;
#X text -235 101 frequency;
#X text 63 97 index;
#X text 65 78 modulation;
#X obj -41 83 * 200;
#X obj -175 93 * 500;
#X obj -37 516 outlet~;
#X obj -171 133 + 150;
#X text -119 89 frequency;
#X text -110 75 modulation;
#X obj -76 406 cos~;
#X floatatom -25 209 4 0 200 0 - - -;
#X obj -25 232 / 10;
#X text 15 203 center;
#X text 15 223 freq. (in;
#X text 15 243 tenths of;
#X text 15 263 fundamental);
#X floatatom -128 217 4 0 0 0 - - -;
#X text -211 220 fundamental;
#X text -211 240 (= mod freq);
#X text 136 181 index;
#X text 136 201 (percent);
#X floatatom 136 222 4 0 500 0 - - -;
#X obj 136 291 line~;
#X obj 3 363 *~;
#X obj 136 245 / 100;
#X obj 136 268 pack 0 50;
#X obj -76 383 +~;
#X text 6 389 modulating;
#X text 11 406 oscillator;
#X obj -76 453 hip~;
#X obj -25 281 *;
#X obj -25 258 t b f;
#X obj 3 340 osc~;
#X obj -76 347 phasor~;
#X text -148 333 carrier;
#X text -174 350 oscillator;
#X obj -137 162 spigot;
#X obj -25 153 spigot;
#X obj 126 151 spigot;
#X obj 9 84 * 1000;
#X obj -76 486 spigot~;
#X obj 257 40 send \$0-on-off;
#X obj -104 139 r \$0-on-off;
#X obj 8 131 r \$0-on-off;
#X obj 159 128 r \$0-on-off;
#X obj -37 462 r \$0-on-off;
#X obj -178 33 inlet x;
#X obj -49 27 inlet y;
#X obj 17 41 inlet size;
#X obj 257 17 inlet On/Off;
#X obj 164 19 inlet color;
#X obj 164 41 send \$0-color;
#X connect 4 0 38 0;
#X connect 5 0 7 0;
#X connect 7 0 37 0;
#X connect 10 0 30 0;
#X connect 11 0 12 0;
#X connect 12 0 32 0;
#X connect 17 0 31 0;
#X connect 17 0 33 0;
#X connect 22 0 25 0;
#X connect 23 0 24 1;
#X connect 24 0 27 1;
#X connect 25 0 26 0;
#X connect 26 0 23 0;
#X connect 27 0 10 0;
#X connect 30 0 41 0;
#X connect 31 0 34 0;
#X connect 32 0 31 0;
#X connect 32 1 31 1;
#X connect 33 0 24 0;
#X connect 34 0 27 0;
#X connect 37 0 17 0;
#X connect 38 0 11 0;
#X connect 39 0 22 0;
#X connect 40 0 39 0;
#X connect 41 1 6 0;
#X connect 43 0 37 1;
#X connect 44 0 38 1;
#X connect 45 0 39 1;
#X connect 46 0 41 1;
#X connect 47 0 5 0;
#X connect 48 0 4 0;
#X connect 49 0 40 0;
#X connect 50 0 42 0;
#X connect 51 0 52 0;
