#N canvas 145 116 799 775 10;
#X declare -lib Gem;
#X obj 173 35 import Gem;
#X obj 294 167 separator;
#X obj 294 208 pix_texture;
#X obj 93 106 gemhead 10;
#X obj 93 150 pix_video;
#X text 293 149 Render source video;
#X msg 169 129 device 0;
#N canvas 162 133 570 420 serin 0;
#X obj 205 60 cnv 20 20 20 empty \$0-open-canvas 0 4 10 0 16 -233017
-1 0;
#X obj 60 61 hradio 18 1 1 8 empty empty empty 0 -6 0 8 -225271 -1
-1 0;
#X obj 60 13 inlet;
#X msg 200 202 label \$1;
#X obj 200 180 makefilename %d;
#X obj 59 108 int;
#X obj 59 337 outlet;
#X msg 201 306 set \$1 \$2;
#X obj 59 266 trigger bang anything;
#X obj 201 286 list;
#X obj 200 225 send \$0-open-canvas;
#X msg 60 210 device \$1;
#X connect 1 0 5 0;
#X connect 2 0 1 0;
#X connect 3 0 10 0;
#X connect 4 0 3 0;
#X connect 5 0 4 0;
#X connect 5 0 11 0;
#X connect 7 0 6 0;
#X connect 8 0 6 0;
#X connect 8 1 9 0;
#X connect 9 0 7 0;
#X connect 11 0 8 0;
#X coords 0 -1 1 1 165 20 1 60 60;
#X restore 169 105 pd serin;
#X msg 235 128 dimen 320 240;
#X msg 338 126 colorspace RGBA;
#X msg 447 125 dialog;
#X text 43 -52 Simply detects global lights on/lights off Changes have
to be major for this to work;
#X msg 256 357 reset;
#X obj 99 328 pix_background;
#X msg 180 309 \$1 \$1 \$1;
#X obj 186 286 hsl 128 15 0 1 0 1 empty empty empty -2 -8 0 10 -262130
-1 -1 3200 1;
#X floatatom 239 309 5 0 0 0 - - -;
#X obj 97 255 pix_grey;
#X obj 175 407 pix_texture;
#X obj 65 367 pix_mean_color;
#X obj 175 -21 gemwin_control;
#X obj 146 479 unpack 0;
#X obj 228 614 print movement!;
#X text 576 543 OFF;
#X text 637 511 noise;
#X text 636 528 tone;
#X obj 620 513 vradio 15 1 0 2 tone-type tone-type-set empty 0 -6 0
8 -262144 -1 -1 1;
#X obj 558 514 vradio 15 1 0 3 tone-radio tone-radio-set empty 0 -6
0 8 -262144 -1 -1 2;
#N canvas 1159 622 321 422 audio 0;
#X obj 25 303 s~ tone-mon;
#X obj 25 277 line~;
#X obj 25 249 pack 0 50;
#X obj 25 223 r tone-monitor;
#X obj 28 139 * 5;
#X obj 28 164 s tone-hip;
#X obj 28 114 r tone-hipass;
#N canvas 424 104 548 519 glue+loadbang 0;
#X obj 8 20 loadbang;
#X obj 175 18 r tone-all;
#X obj 285 16 r tone-none;
#X msg 175 46 \; tone-ch1 1 \; tone-ch2 1 \; tone-ch3 1 \; tone-ch4
1 \; tone-ch5 1 \; tone-ch6 1 \; tone-ch7 1 \; tone-ch8 1;
#X msg 285 47 \; tone-ch1 0 \; tone-ch2 0 \; tone-ch3 0 \; tone-ch4
0 \; tone-ch5 0 \; tone-ch6 0 \; tone-ch7 0 \; tone-ch8 0;
#X msg 8 48 \; pd dsp 1 \; tone-pitch 69 \; tone-radio 2 \; tone-radio-set
set 2 \; tone-type 1 \; tone-type-set 1 \; tone-all 1 \; tone-hipass-set
set 1 \;;
#X connect 0 0 5 0;
#X connect 1 0 3 0;
#X connect 2 0 4 0;
#X restore 22 332 pd glue+loadbang;
#N canvas 1358 551 468 559 tone-generator 0;
#X obj 22 187 osc~;
#X obj 22 81 mtof;
#X floatatom 22 58 0 0 0 0 - - -;
#X floatatom 22 103 0 0 0 0 - - -;
#X obj 22 163 sig~;
#X obj 22 33 r tone-pitch;
#X obj 119 179 noise~;
#X obj 65 249 +~;
#X obj 282 140 - 1;
#X obj 282 172 * -1;
#X obj 191 228 line~;
#X obj 281 229 line~;
#X obj 22 211 *~;
#X obj 119 210 *~;
#X msg 191 199 \$1 20;
#X msg 281 200 \$1 20;
#X floatatom 273 109 0 0 0 0 - - -;
#X obj 64 504 *~;
#X obj 86 477 line~;
#X obj 86 450 pack 0 50;
#X floatatom 201 365 0 0 0 0 - - -;
#X obj 86 423 dbtorms;
#X obj 64 530 s~ tone-osc;
#X obj 201 282 r tone-radio;
#X obj 201 310 sel 0 1 2;
#X msg 270 333 0;
#X msg 201 335 80;
#X msg 234 335 60;
#X obj 273 86 r tone-type;
#X obj 89 359 r tone-level;
#X obj 178 453 s tone-level-set;
#X msg 177 428 set \$1;
#X obj 329 452 s tone-radio-set;
#X obj 327 369 sel 80 60 0;
#X msg 327 394 0;
#X msg 360 394 1;
#X msg 393 394 2;
#X msg 329 426 set \$1;
#X msg 423 394 2;
#X obj 72 89 s tone-pitch-set;
#X msg 72 66 set \$1;
#X obj 177 29 r tone-hz;
#X msg 75 117 set \$1;
#X obj 75 140 s tone-hz-set;
#X obj 177 55 ftom;
#X connect 0 0 12 0;
#X connect 1 0 3 0;
#X connect 2 0 1 0;
#X connect 2 0 40 0;
#X connect 3 0 4 0;
#X connect 3 0 42 0;
#X connect 4 0 0 0;
#X connect 5 0 2 0;
#X connect 6 0 13 0;
#X connect 7 0 17 0;
#X connect 8 0 9 0;
#X connect 9 0 15 0;
#X connect 10 0 12 1;
#X connect 11 0 13 1;
#X connect 12 0 7 0;
#X connect 13 0 7 1;
#X connect 14 0 10 0;
#X connect 15 0 11 0;
#X connect 16 0 8 0;
#X connect 16 0 14 0;
#X connect 17 0 22 0;
#X connect 18 0 17 1;
#X connect 19 0 18 0;
#X connect 20 0 21 0;
#X connect 20 0 31 0;
#X connect 21 0 19 0;
#X connect 23 0 24 0;
#X connect 24 0 26 0;
#X connect 24 1 27 0;
#X connect 24 2 25 0;
#X connect 25 0 20 0;
#X connect 26 0 20 0;
#X connect 27 0 20 0;
#X connect 28 0 16 0;
#X connect 29 0 31 0;
#X connect 29 0 21 0;
#X connect 31 0 30 0;
#X connect 33 0 34 0;
#X connect 33 1 35 0;
#X connect 33 2 36 0;
#X connect 33 3 38 0;
#X connect 34 0 37 0;
#X connect 35 0 37 0;
#X connect 36 0 37 0;
#X connect 37 0 32 0;
#X connect 38 0 37 0;
#X connect 40 0 39 0;
#X connect 41 0 44 0;
#X connect 42 0 43 0;
#X connect 44 0 2 0;
#X restore 24 68 pd tone-generator;
#N canvas 76 157 975 436 assigns 0;
#X obj 12 71 hip~ 5;
#X obj 20 122 int;
#X obj 20 96 env~ 8192;
#X obj 12 18 adc~ 1;
#X obj 22 171 r~ tone-mon;
#X obj 31 306 line~;
#X obj 12 196 *~;
#X obj 31 279 pack 0 50;
#X obj 31 253 r tone-ch1;
#X obj 22 226 r~ tone-osc;
#X obj 22 331 *~;
#X obj 12 386 dac~ 1;
#X obj 12 361 +~;
#X obj 20 44 r tone-hip;
#X obj 132 70 hip~ 5;
#X obj 140 121 int;
#X obj 140 95 env~ 8192;
#X obj 142 170 r~ tone-mon;
#X obj 151 305 line~;
#X obj 132 195 *~;
#X obj 151 278 pack 0 50;
#X obj 142 225 r~ tone-osc;
#X obj 142 330 *~;
#X obj 132 360 +~;
#X obj 140 43 r tone-hip;
#X obj 132 17 adc~ 2;
#X obj 132 385 dac~ 2;
#X obj 151 252 r tone-ch2;
#X obj 254 72 hip~ 5;
#X obj 262 123 int;
#X obj 262 97 env~ 8192;
#X obj 264 172 r~ tone-mon;
#X obj 273 307 line~;
#X obj 254 197 *~;
#X obj 273 280 pack 0 50;
#X obj 264 227 r~ tone-osc;
#X obj 264 332 *~;
#X obj 254 362 +~;
#X obj 262 45 r tone-hip;
#X obj 370 68 hip~ 5;
#X obj 378 119 int;
#X obj 378 93 env~ 8192;
#X obj 380 168 r~ tone-mon;
#X obj 389 303 line~;
#X obj 370 193 *~;
#X obj 389 276 pack 0 50;
#X obj 380 223 r~ tone-osc;
#X obj 380 328 *~;
#X obj 370 358 +~;
#X obj 378 41 r tone-hip;
#X obj 487 68 hip~ 5;
#X obj 495 119 int;
#X obj 495 93 env~ 8192;
#X obj 497 168 r~ tone-mon;
#X obj 506 303 line~;
#X obj 487 193 *~;
#X obj 506 276 pack 0 50;
#X obj 497 223 r~ tone-osc;
#X obj 497 328 *~;
#X obj 487 358 +~;
#X obj 495 41 r tone-hip;
#X obj 607 67 hip~ 5;
#X obj 615 118 int;
#X obj 615 92 env~ 8192;
#X obj 617 167 r~ tone-mon;
#X obj 626 302 line~;
#X obj 607 192 *~;
#X obj 626 275 pack 0 50;
#X obj 617 222 r~ tone-osc;
#X obj 617 327 *~;
#X obj 607 357 +~;
#X obj 615 40 r tone-hip;
#X obj 254 19 adc~ 3;
#X obj 370 15 adc~ 4;
#X obj 487 15 adc~ 5;
#X obj 607 14 adc~ 6;
#X obj 273 254 r tone-ch3;
#X obj 389 249 r tone-ch4;
#X obj 506 250 r tone-ch5;
#X obj 626 249 r tone-ch6;
#X obj 254 387 dac~ 3;
#X obj 369 382 dac~ 4;
#X obj 487 383 dac~ 5;
#X obj 607 382 dac~ 6;
#X obj 725 72 hip~ 5;
#X obj 733 123 int;
#X obj 733 97 env~ 8192;
#X obj 735 172 r~ tone-mon;
#X obj 744 307 line~;
#X obj 725 197 *~;
#X obj 744 280 pack 0 50;
#X obj 735 227 r~ tone-osc;
#X obj 735 332 *~;
#X obj 725 362 +~;
#X obj 733 45 r tone-hip;
#X obj 845 71 hip~ 5;
#X obj 853 122 int;
#X obj 853 96 env~ 8192;
#X obj 855 171 r~ tone-mon;
#X obj 864 306 line~;
#X obj 845 196 *~;
#X obj 864 279 pack 0 50;
#X obj 855 226 r~ tone-osc;
#X obj 855 331 *~;
#X obj 845 361 +~;
#X obj 853 44 r tone-hip;
#X obj 725 19 adc~ 7;
#X obj 845 18 adc~ 8;
#X obj 725 387 dac~ 7;
#X obj 845 386 dac~ 8;
#X obj 744 254 r tone-ch7;
#X obj 864 253 r tone-ch8;
#X obj 20 148 s tone-vu1;
#X obj 140 147 s tone-vu2;
#X obj 262 149 s tone-vu3;
#X obj 378 145 s tone-vu4;
#X obj 495 145 s tone-vu5;
#X obj 615 144 s tone-vu6;
#X obj 733 149 s tone-vu7;
#X obj 853 148 s tone-vu8;
#X connect 0 0 6 0;
#X connect 0 0 2 0;
#X connect 1 0 112 0;
#X connect 2 0 1 0;
#X connect 3 0 0 0;
#X connect 4 0 6 1;
#X connect 5 0 10 1;
#X connect 6 0 12 0;
#X connect 7 0 5 0;
#X connect 8 0 7 0;
#X connect 9 0 10 0;
#X connect 10 0 12 1;
#X connect 12 0 11 0;
#X connect 13 0 0 1;
#X connect 14 0 19 0;
#X connect 14 0 16 0;
#X connect 15 0 113 0;
#X connect 16 0 15 0;
#X connect 17 0 19 1;
#X connect 18 0 22 1;
#X connect 19 0 23 0;
#X connect 20 0 18 0;
#X connect 21 0 22 0;
#X connect 22 0 23 1;
#X connect 23 0 26 0;
#X connect 24 0 14 1;
#X connect 25 0 14 0;
#X connect 27 0 20 0;
#X connect 28 0 33 0;
#X connect 28 0 30 0;
#X connect 29 0 114 0;
#X connect 30 0 29 0;
#X connect 31 0 33 1;
#X connect 32 0 36 1;
#X connect 33 0 37 0;
#X connect 34 0 32 0;
#X connect 35 0 36 0;
#X connect 36 0 37 1;
#X connect 37 0 80 0;
#X connect 38 0 28 1;
#X connect 39 0 44 0;
#X connect 39 0 41 0;
#X connect 40 0 115 0;
#X connect 41 0 40 0;
#X connect 42 0 44 1;
#X connect 43 0 47 1;
#X connect 44 0 48 0;
#X connect 45 0 43 0;
#X connect 46 0 47 0;
#X connect 47 0 48 1;
#X connect 48 0 81 0;
#X connect 49 0 39 1;
#X connect 50 0 55 0;
#X connect 50 0 52 0;
#X connect 51 0 116 0;
#X connect 52 0 51 0;
#X connect 53 0 55 1;
#X connect 54 0 58 1;
#X connect 55 0 59 0;
#X connect 56 0 54 0;
#X connect 57 0 58 0;
#X connect 58 0 59 1;
#X connect 59 0 82 0;
#X connect 60 0 50 1;
#X connect 61 0 66 0;
#X connect 61 0 63 0;
#X connect 62 0 117 0;
#X connect 63 0 62 0;
#X connect 64 0 66 1;
#X connect 65 0 69 1;
#X connect 66 0 70 0;
#X connect 67 0 65 0;
#X connect 68 0 69 0;
#X connect 69 0 70 1;
#X connect 70 0 83 0;
#X connect 71 0 61 1;
#X connect 72 0 28 0;
#X connect 73 0 39 0;
#X connect 74 0 50 0;
#X connect 75 0 61 0;
#X connect 76 0 34 0;
#X connect 77 0 45 0;
#X connect 78 0 56 0;
#X connect 79 0 67 0;
#X connect 84 0 89 0;
#X connect 84 0 86 0;
#X connect 85 0 118 0;
#X connect 86 0 85 0;
#X connect 87 0 89 1;
#X connect 88 0 92 1;
#X connect 89 0 93 0;
#X connect 90 0 88 0;
#X connect 91 0 92 0;
#X connect 92 0 93 1;
#X connect 93 0 108 0;
#X connect 94 0 84 1;
#X connect 95 0 100 0;
#X connect 95 0 97 0;
#X connect 96 0 119 0;
#X connect 97 0 96 0;
#X connect 98 0 100 1;
#X connect 99 0 103 1;
#X connect 100 0 104 0;
#X connect 101 0 99 0;
#X connect 102 0 103 0;
#X connect 103 0 104 1;
#X connect 104 0 109 0;
#X connect 105 0 95 1;
#X connect 106 0 84 0;
#X connect 107 0 95 0;
#X connect 110 0 90 0;
#X connect 111 0 101 0;
#X restore 38 387 pd assigns;
#X obj 178 87 loadbang;
#X obj 178 111 1;
#X connect 1 0 0 0;
#X connect 2 0 1 0;
#X connect 3 0 2 0;
#X connect 4 0 5 0;
#X connect 6 0 4 0;
#X connect 10 0 11 0;
#X connect 11 0 4 0;
#X restore 680 569 pd audio;
#X floatatom 558 567 3 0 100 1 - tone-level-set tone-level;
#X floatatom 620 546 5 0 100 1 pitch tone-pitch-set tone-pitch;
#X floatatom 620 568 5 0 20000 1 HZ tone-hz-set tone-hz;
#X text 584 568 dB;
#X text 570 490 TEST TONES;
#X text 575 528 60;
#X text 575 511 80;
#X text 552 586 (100 max);
#X obj 82 639 s tone-radio-set;
#X msg 154 592 0;
#X obj 279 576 print;
#X obj 280 541 spigot;
#X msg 313 507 1;
#X obj 393 506 != 1;
#X msg 345 506 set \$1;
#X obj 280 449 loadbang;
#X msg 240 448 bang;
#X obj 273 475 metro 1000;
#X obj 246 506 delay 100;
#X obj 175 426 rectangle 4 3;
#X obj 294 236 rectangle 4 3;
#X obj 367 208 * 1.33333;
#X floatatom 443 209 5 0 0 0 - - -;
#X obj 479 169 loadbang;
#X obj 259 407 * 1.33333;
#X floatatom 335 408 5 0 0 0 - - -;
#X obj 355 317 loadbang;
#X obj 298 187 translateXYZ -5 0 0;
#X msg 311 2 reset \, dimen 1230 480 \, color 0.3 0.3 0.6 \, create
\, 1;
#X obj 174 388 translateXYZ 5 0 0;
#X msg 110 592 1;
#X msg 68 593 2;
#X msg 439 186 3.7;
#X msg 333 388 3.7;
#X obj 93 208 separator;
#X msg 72 18 0 \, destroy;
#N canvas 107 24 450 300 esc 0;
#X obj 65 20 gemkeyboard;
#X obj 65 167 outlet;
#X obj 89 71 keyname;
#X obj 128 96 sel Escape;
#X obj 65 41 sel 53;
#X obj 189 47 sel Escape;
#X obj 150 22 gemkeyname;
#X connect 0 0 4 0;
#X connect 2 1 3 0;
#X connect 3 0 1 0;
#X connect 4 0 1 0;
#X connect 5 0 1 0;
#X connect 6 1 5 0;
#X restore 72 -4 pd esc;
#X obj 146 517 moses 0.1;
#X obj 74 550 moses 0.01;
#X msg 312 29 reset \, fullscreen 1 \, color 0.05 0.05 0.1 \, create
\, 1;
#X obj 279 338 metro 30000;
#X msg 295 312 bang;
#X obj -33 468 0.01;
#X obj -2 468 0.1;
#X obj -34 490 0.02;
#X obj 1 490 0.2;
#X msg -32 430 bang;
#X msg -31 407 bang;
#X msg -31 387 bang;
#X text 7 386 very sensitive;
#X text 13 405 sensitive;
#X text 11 425 less sensitive;
#X obj -26 449 0.001;
#X obj 24 448 0.01;
#X connect 1 0 56 0;
#X connect 2 0 49 0;
#X connect 3 0 4 0;
#X connect 4 0 1 0;
#X connect 4 0 63 0;
#X connect 6 0 4 0;
#X connect 7 0 6 0;
#X connect 8 0 4 0;
#X connect 9 0 4 0;
#X connect 10 0 4 0;
#X connect 12 0 13 0;
#X connect 13 0 58 0;
#X connect 13 0 19 0;
#X connect 14 0 13 1;
#X connect 15 0 16 0;
#X connect 15 0 14 0;
#X connect 17 0 13 0;
#X connect 18 0 48 0;
#X connect 19 1 21 0;
#X connect 21 0 40 0;
#X connect 21 0 66 0;
#X connect 38 0 37 0;
#X connect 40 0 39 0;
#X connect 41 0 42 0;
#X connect 41 0 40 1;
#X connect 42 0 43 0;
#X connect 43 0 41 0;
#X connect 44 0 46 0;
#X connect 45 0 46 0;
#X connect 46 0 41 0;
#X connect 46 0 47 0;
#X connect 47 0 41 0;
#X connect 50 0 49 1;
#X connect 51 0 50 0;
#X connect 51 0 49 2;
#X connect 52 0 61 0;
#X connect 53 0 48 1;
#X connect 54 0 53 0;
#X connect 54 0 48 2;
#X connect 55 0 62 0;
#X connect 55 0 69 0;
#X connect 56 0 2 0;
#X connect 57 0 20 0;
#X connect 58 0 18 0;
#X connect 59 0 37 0;
#X connect 60 0 37 0;
#X connect 61 0 51 0;
#X connect 62 0 54 0;
#X connect 63 0 17 0;
#X connect 64 0 20 0;
#X connect 65 0 64 0;
#X connect 66 0 67 0;
#X connect 66 1 22 0;
#X connect 66 1 38 0;
#X connect 67 0 60 0;
#X connect 67 1 59 0;
#X connect 68 0 20 0;
#X connect 69 0 12 0;
#X connect 70 0 69 0;
#X connect 71 0 67 1;
#X connect 72 0 66 1;
#X connect 73 0 67 1;
#X connect 74 0 66 1;
#X connect 75 0 73 0;
#X connect 75 0 74 0;
#X connect 76 0 71 0;
#X connect 76 0 72 0;
#X connect 77 0 81 0;
#X connect 77 0 82 0;
#X connect 81 0 67 1;
#X connect 82 0 66 1;
