#N canvas 625 163 1219 453 10;
#X obj 96 -35 inlet Red;
#X obj 173 -36 inlet Green;
#X obj 261 -35 inlet Blue;
#X obj 179 84 >;
#X obj 95 84 >;
#X obj 325 91 >;
#X obj 258 90 >;
#X obj 471 93 >;
#X obj 400 90 >;
#X obj 137 111 &&;
#X obj 282 117 &&;
#X obj 432 119 &&;
#X obj 137 207 outlet RED;
#X obj 282 207 outlet GREEN;
#X obj 432 207 outlet BLUE;
#X obj 590 95 &&;
#X obj 590 118 &&;
#X obj 590 207 outlet BLACK;
#X obj 799 213 outlet YELLOW;
#X obj 110 59 + 0.05;
#X obj 194 59 + 0.05;
#X obj 273 64 + 0.05;
#X obj 340 66 + 0.05;
#X obj 415 66 + 0.05;
#X obj 486 67 + 0.05;
#X obj 556 62 < 0.05;
#X obj 611 62 < 0.05;
#X obj 678 62 < 0.05;
#X obj 746 83 <;
#X obj 799 100 &&;
#X obj 872 83 >;
#X obj 802 66 + 0.05;
#X obj 937 66 - 0.05;
#X obj 96 -15 s red-\$0;
#X obj 95 12 r red-\$0;
#X obj 173 -15 s green-\$0;
#X obj 110 34 r green-\$0;
#X obj 261 -14 s blue-\$0;
#X obj 179 13 r red-\$0;
#X obj 194 35 r blue-\$0;
#X obj 258 16 r green-\$0;
#X obj 273 39 r red-\$0;
#X obj 325 16 r green-\$0;
#X obj 340 42 r blue-\$0;
#X obj 400 18 r blue-\$0;
#X obj 415 44 r red-\$0;
#X obj 471 18 r blue-\$0;
#X obj 486 44 r green-\$0;
#X obj 556 39 r red-\$0;
#X obj 611 39 r green-\$0;
#X obj 678 39 r blue-\$0;
#X obj 746 40 r red-\$0;
#X obj 802 40 r green-\$0;
#X obj 872 40 r red-\$0;
#X obj 937 40 r green-\$0;
#X obj 799 123 &&;
#X obj 1009 56 r blue-\$0;
#X obj 1009 106 <;
#X obj 1024 80 r green-\$0;
#X obj 799 144 &&;
#X obj 905 101 r red-\$0;
#X obj 905 127 > 0.15;
#X msg 137 157 RED;
#X msg 282 158 GREEN;
#X msg 432 163 BLUE;
#X msg 590 162 BLACK;
#X msg 799 182 YELLOW;
#X connect 0 0 33 0;
#X connect 1 0 35 0;
#X connect 2 0 37 0;
#X connect 3 0 9 1;
#X connect 4 0 9 0;
#X connect 5 0 10 1;
#X connect 6 0 10 0;
#X connect 7 0 11 1;
#X connect 8 0 11 0;
#X connect 9 0 62 0;
#X connect 10 0 63 0;
#X connect 11 0 64 0;
#X connect 15 0 16 0;
#X connect 16 0 65 0;
#X connect 19 0 4 1;
#X connect 20 0 3 1;
#X connect 21 0 6 1;
#X connect 22 0 5 1;
#X connect 23 0 8 1;
#X connect 24 0 7 1;
#X connect 25 0 15 0;
#X connect 26 0 15 1;
#X connect 27 0 16 1;
#X connect 28 0 29 0;
#X connect 29 0 55 0;
#X connect 30 0 29 1;
#X connect 31 0 28 1;
#X connect 32 0 30 1;
#X connect 34 0 4 0;
#X connect 36 0 19 0;
#X connect 38 0 3 0;
#X connect 39 0 20 0;
#X connect 40 0 6 0;
#X connect 41 0 21 0;
#X connect 42 0 5 0;
#X connect 43 0 22 0;
#X connect 44 0 8 0;
#X connect 45 0 23 0;
#X connect 46 0 7 0;
#X connect 47 0 24 0;
#X connect 48 0 25 0;
#X connect 49 0 26 0;
#X connect 50 0 27 0;
#X connect 51 0 28 0;
#X connect 52 0 31 0;
#X connect 53 0 30 0;
#X connect 54 0 32 0;
#X connect 55 0 59 0;
#X connect 56 0 57 0;
#X connect 57 0 55 1;
#X connect 58 0 57 1;
#X connect 59 0 66 0;
#X connect 60 0 61 0;
#X connect 61 0 59 1;
#X connect 62 0 12 0;
#X connect 63 0 13 0;
#X connect 64 0 14 0;
#X connect 65 0 17 0;
#X connect 66 0 18 0;
