#N canvas 102 485 785 587 10;
#X declare -lib iemmatrix;
#X obj 195 53 inlet;
#X obj 157 188 inlet;
#X obj 224 286 makesound;
#X obj 183 323 outlet~;
#X obj 299 16 r start;
#X obj 189 250 showblob \$1;
#X obj 190 221 spigot;
#X obj 299 74 float \$1;
#X obj 260 125 >= 1000;
#X connect 0 0 8 0;
#X connect 1 0 6 0;
#X connect 2 0 3 0;
#X connect 4 0 7 0;
#X connect 5 5 2 0;
#X connect 5 6 2 1;
#X connect 5 7 2 2;
#X connect 6 0 5 0;
#X connect 7 0 8 1;
#X connect 8 0 2 3;
#X connect 8 0 5 1;
#X connect 8 0 6 1;
