#N canvas 614 232 450 300 10;
#N canvas 387 646 450 300 showblob 0;
#X obj 3 69 inlet blobinformation;
#X obj 3 121 unpack 0 0 0 0 0 0 0 0;
#X obj 3 150 outlet weightedX;
#X obj 24 170 outlet weightedY;
#X obj 45 190 outlet weightedSize;
#X obj 92 219 outlet minX;
#X obj 113 239 outlet minY;
#X obj 179 219 outlet maxX;
#X obj 196 239 outlet maxY;
#X obj 284 221 outlet size;
#N canvas 96 591 568 356 rectangle 0;
#X obj 68 75 inlet;
#X obj 215 -1 inlet;
#X obj 68 257 rectangle;
#X obj 68 234 translateXYZ;
#X obj 215 69 unpack 0 0 0 0;
#X obj 215 94 +;
#X obj 254 95 +;
#X text 248 125 0..2;
#X text 250 145 -1..+1;
#X obj 307 147 -;
#X obj 344 148 -;
#X obj 193 124 - 1;
#X obj 222 123 - 1;
#X obj 307 179 * -4;
#X obj 344 179 * -4;
#X obj 222 146 * -4;
#X obj 193 147 * 4;
#X obj 441 179 inlet;
#X obj 307 206 *;
#X obj 344 207 *;
#X connect 0 0 3 0;
#X connect 1 0 4 0;
#X connect 3 0 2 0;
#X connect 4 0 5 0;
#X connect 4 0 9 0;
#X connect 4 1 5 1;
#X connect 4 1 9 1;
#X connect 4 2 6 0;
#X connect 4 2 10 0;
#X connect 4 3 6 1;
#X connect 4 3 10 1;
#X connect 5 0 11 0;
#X connect 6 0 12 0;
#X connect 9 0 13 0;
#X connect 10 0 14 0;
#X connect 11 0 16 0;
#X connect 12 0 15 0;
#X connect 13 0 18 1;
#X connect 14 0 19 1;
#X connect 15 0 3 2;
#X connect 16 0 3 1;
#X connect 17 0 19 0;
#X connect 17 0 18 0;
#X connect 18 0 2 1;
#X connect 19 0 2 2;
#X restore 282 171 pd rectangle;
#X obj 282 100 color 1 1 1 0.5;
#X obj 282 79 gemhead 70;
#X obj 282 121 alpha;
#X msg 3 97 \$1 \$2 \$3 \$4 \$5 \$6 \$7 \$8;
#X msg 295 145 \$4 \$6 \$5 \$7;
#X obj 378 154 inlet;
#X connect 0 0 14 0;
#X connect 0 0 15 0;
#X connect 1 0 2 0;
#X connect 1 1 3 0;
#X connect 1 2 4 0;
#X connect 1 3 5 0;
#X connect 1 4 6 0;
#X connect 1 5 7 0;
#X connect 1 6 8 0;
#X connect 1 7 9 0;
#X connect 11 0 13 0;
#X connect 12 0 11 0;
#X connect 13 0 10 0;
#X connect 14 0 1 0;
#X connect 15 0 10 1;
#X connect 16 0 10 2;
#X restore 178 188 pd showblob;
#X obj 179 168 matrix;
#X msg 178 147 row \$1;
#X obj 183 91 * 1;
#X obj 180 118 + 1;
#X obj 207 266 outlet~;
#X obj 193 56 >=;
#X obj 166 25 inlet;
#X text 60 24 Number of objects;
#X obj 232 29 inlet;
#X text 271 28 number of this object;
#X obj 56 151 inlet;
#X text 25 133 matrix of blobs;
#X obj 234 63 - 1;
#X obj 207 230 makesound;
#X connect 0 0 14 0;
#X connect 0 1 14 1;
#X connect 0 2 14 2;
#X connect 1 0 0 0;
#X connect 2 0 1 0;
#X connect 3 0 4 0;
#X connect 4 0 2 0;
#X connect 6 0 3 0;
#X connect 6 0 0 1;
#X connect 6 0 14 3;
#X connect 7 0 6 0;
#X connect 9 0 6 1;
#X connect 9 0 13 0;
#X connect 11 0 1 1;
#X connect 13 0 3 1;
#X connect 14 0 5 0;
