#N canvas 1023 124 785 587 10;
#X declare -lib iemmatrix;
#X obj 324 2 inlet;
#X obj 146 77 inlet;
#X obj 363 -3 r start;
#X obj 209 133 showblob \$1;
#X obj 179 110 spigot;
#X obj 363 23 float \$1;
#X obj 324 51 >= 1000;
#X text 313 -20 mtx_size;
#X text 136 59 matrix;
#X obj 79 122 inlet;
#X text 67 101 gem_list;
#X obj 211 178 blob_RGB;
#X text 79 266 RED;
#X text 152 267 GREEN;
#X text 220 267 BLUE;
#X text 284 270 BLACK;
#X text 344 269 YELLOW;
#X obj 192 204 RGB_to_color;
#X obj 360 194 s x-\$0;
#X obj 362 171 s y-\$0;
#X obj 363 150 s size-\$0;
#X obj 361 120 s on/off-\$0;
#X obj 50 187 r on/off-\$0;
#X obj 18 363 r x-\$0;
#X obj 147 362 r size-\$0;
#X obj 84 362 r y-\$0;
#X obj 323 79 trigger f f f;
#X obj 18 384 outlet x;
#X obj 264 384 outlet color;
#X obj 147 384 outlet size;
#X obj 84 384 outlet y;
#X obj 372 385 outlet on/off;
#X obj 372 363 r on/off-\$0;
#X obj 76 253 spigot;
#X obj 149 253 spigot;
#X obj 214 254 spigot;
#X obj 282 254 spigot;
#X obj 344 255 spigot;
#X connect 0 0 6 0;
#X connect 1 0 4 0;
#X connect 2 0 5 0;
#X connect 3 3 11 2;
#X connect 3 4 11 4;
#X connect 3 5 11 1;
#X connect 3 5 18 0;
#X connect 3 6 11 3;
#X connect 3 6 19 0;
#X connect 3 7 20 0;
#X connect 4 0 3 0;
#X connect 5 0 6 1;
#X connect 6 0 26 0;
#X connect 9 0 11 0;
#X connect 11 0 17 0;
#X connect 11 1 17 1;
#X connect 11 2 17 2;
#X connect 17 0 33 0;
#X connect 17 1 34 0;
#X connect 17 2 35 0;
#X connect 17 3 36 0;
#X connect 17 4 37 0;
#X connect 22 0 33 1;
#X connect 22 0 34 1;
#X connect 22 0 35 1;
#X connect 22 0 36 1;
#X connect 22 0 37 1;
#X connect 23 0 27 0;
#X connect 24 0 29 0;
#X connect 25 0 30 0;
#X connect 26 0 4 1;
#X connect 26 1 3 1;
#X connect 26 2 21 0;
#X connect 32 0 31 0;
#X connect 33 0 28 0;
#X connect 34 0 28 0;
#X connect 35 0 28 0;
#X connect 36 0 28 0;
#X connect 37 0 28 0;
