#N canvas 217 483 785 587 10;
#X declare -lib iemmatrix;
#X declare -lib ggee;
#X obj 324 2 inlet;
#X obj 146 77 inlet;
#X obj 132 373 makesound;
#X obj 202 408 outlet~;
#X obj 363 -3 r start;
#X obj 209 133 showblob \$1;
#X obj 179 110 spigot;
#X obj 363 23 float \$1;
#X obj 324 74 >= 1000;
#X text 313 -20 mtx_size;
#X text 136 59 matrix;
#X obj 79 122 inlet;
#X text 67 101 gem_list;
#X obj 211 178 blob_RGB;
#X text 144 255 RED;
#X text 174 256 GREEN;
#X text 220 256 BLUE;
#X text 254 256 BLACK;
#X text 291 257 YELLOW;
#X obj 192 204 RGB_to_color;
#X obj 201 374 makesound2;
#X obj 148 296 &&;
#X obj 148 241 tgl 15 0 empty empty empty 17 7 0 10 -262144 -1 -1 0
1;
#X obj 183 239 tgl 15 0 empty empty empty 17 7 0 10 -262144 -1 -1 0
1;
#X obj 226 239 tgl 15 0 empty empty empty 17 7 0 10 -262144 -1 -1 0
1;
#X obj 263 239 tgl 15 0 empty empty empty 17 7 0 10 -262144 -1 -1 0
1;
#X obj 299 242 tgl 15 0 empty empty empty 17 7 0 10 -262144 -1 -1 0
1;
#X obj 221 306 &&;
#X obj 275 374 makesound3;
#X obj 286 311 &&;
#X obj 360 194 s x-\$0;
#X obj 362 171 s y-\$0;
#X obj 363 150 s size-\$0;
#X obj 361 120 s on/off-\$0;
#X obj 329 279 r on/off-\$0;
#X obj -20 302 r x-\$0;
#X obj 74 295 r size-\$0;
#X obj 28 297 r y-\$0;
#X connect 0 0 8 0;
#X connect 1 0 6 0;
#X connect 2 0 3 0;
#X connect 4 0 7 0;
#X connect 5 3 13 2;
#X connect 5 4 13 4;
#X connect 5 5 13 1;
#X connect 5 5 30 0;
#X connect 5 6 13 3;
#X connect 5 6 31 0;
#X connect 5 7 32 0;
#X connect 6 0 5 0;
#X connect 7 0 8 1;
#X connect 8 0 5 1;
#X connect 8 0 6 1;
#X connect 8 0 33 0;
#X connect 11 0 13 0;
#X connect 13 0 19 0;
#X connect 13 1 19 1;
#X connect 13 2 19 2;
#X connect 19 0 22 0;
#X connect 19 1 23 0;
#X connect 19 2 24 0;
#X connect 19 3 25 0;
#X connect 19 4 26 0;
#X connect 20 0 3 0;
#X connect 21 0 2 3;
#X connect 22 0 21 0;
#X connect 23 0 27 0;
#X connect 24 0 29 0;
#X connect 27 0 20 3;
#X connect 28 0 3 0;
#X connect 29 0 28 3;
#X connect 34 0 29 1;
#X connect 34 0 27 1;
#X connect 34 0 21 1;
#X connect 35 0 2 0;
#X connect 35 0 20 0;
#X connect 35 0 28 0;
#X connect 36 0 2 2;
#X connect 36 0 20 2;
#X connect 36 0 28 2;
#X connect 37 0 2 1;
#X connect 37 0 20 1;
#X connect 37 0 28 1;
