#N canvas 84 451 782 587 10;
#X obj 345 17 inlet;
#X obj 312 122 inlet;
#X text 302 104 matrix;
#X obj 211 137 inlet;
#X text 199 116 gem_list;
#X obj 345 94 trigger f f f;
#X obj 312 283 outlet x;
#X obj 399 256 outlet size;
#X obj 324 256 outlet y;
#X obj 420 188 outlet on/off;
#X obj 420 119 sel 0;
#X msg 420 146 0;
#X msg 447 166 1;
#N canvas 698 494 850 633 showblob2-\$0 0;
#X obj 220 154 inlet blobinformation;
#X obj 159 240 unpack 0 0 0 0 0 0 0 0;
#X obj 159 269 outlet weightedX;
#X obj 177 289 outlet weightedY;
#X obj 195 309 outlet weightedSize;
#X obj 214 338 outlet minX;
#X obj 232 358 outlet minY;
#X obj 251 383 outlet maxX;
#X obj 269 403 outlet maxY;
#X obj 288 431 outlet size;
#X msg 159 211 \$1 \$2 \$3 \$4 \$5 \$6 \$7 \$8;
#X msg 159 153 row \$1;
#X floatatom 159 133 5 0 0 0 - - -;
#X obj 159 187 matrix;
#X obj 159 86 delay 300;
#X obj 379 129 gemhead 70;
#X msg 422 204 \$4 \$6 \$5 \$7 \$1 \$2;
#N canvas 891 137 710 500 rectangle-\$0 0;
#X obj 57 72 inlet;
#X obj 350 -71 inlet;
#X obj 57 306 rectangle;
#X obj 164 69 +;
#X obj 193 69 +;
#X text 219 94 0..2;
#X text 221 114 -1..+1;
#X obj 407 216 -;
#X obj 444 217 -;
#X obj 193 92 - 1;
#X obj 444 239 * -4;
#X obj 164 93 - 1;
#X obj 407 239 * -4;
#X obj 57 217 translateXYZ 0 0 0.1;
#X obj 193 115 * -4;
#X obj 57 240 rotateXYZ 0 180 0;
#X obj 163 116 * -4;
#X obj 247 176 separator;
#X obj 57 284 alpha;
#X obj 247 307 circle 0.06;
#X obj 247 284 alpha;
#X obj 24 353 separator;
#X obj 22 464 alpha;
#X obj 23 493 circle 0.2;
#X obj 57 176 separator;
#X obj 22 443 color 0.8 1 0.8 0.5;
#X obj 25 413 rotateXYZ 0 180 0;
#X obj 25 390 translateXYZ -4 0 0.1;
#X text 91 354 debug \, etc;
#X obj 350 -51 unpack 0 0 0 0 0 0;
#X obj 247 217 translateXYZ 0 0 0.1;
#X obj 247 240 rotateXYZ 0 180 0;
#X obj 286 92 - 0.5;
#X obj 325 92 - 0.5;
#X obj 286 116 * -8;
#X obj 325 116 * -8;
#X text 339 131 centroid of object;
#X text 132 44 center of bounding box;
#X obj 57 263 color 0.8 1 0.7 0.5;
#X obj 247 263 color 0.8 1 0.7 0.5;
#X text 54 50 gemhead;
#X text 100 -54 comment;
#X text 134 -53 minx \, maxx \, miny \, maxy \, centerx \, centery
;
#X connect 0 0 24 0;
#X connect 0 0 17 0;
#X connect 1 0 29 0;
#X connect 3 0 11 0;
#X connect 4 0 9 0;
#X connect 7 0 12 0;
#X connect 8 0 10 0;
#X connect 9 0 14 0;
#X connect 10 0 2 2;
#X connect 11 0 16 0;
#X connect 12 0 2 1;
#X connect 13 0 15 0;
#X connect 14 0 13 2;
#X connect 15 0 38 0;
#X connect 16 0 13 1;
#X connect 17 0 30 0;
#X connect 18 0 2 0;
#X connect 20 0 19 0;
#X connect 22 0 23 0;
#X connect 24 0 13 0;
#X connect 25 0 22 0;
#X connect 26 0 25 0;
#X connect 27 0 26 0;
#X connect 29 0 3 0;
#X connect 29 0 7 0;
#X connect 29 1 3 1;
#X connect 29 1 7 1;
#X connect 29 2 4 0;
#X connect 29 2 8 0;
#X connect 29 3 4 1;
#X connect 29 3 8 1;
#X connect 29 4 32 0;
#X connect 29 5 33 0;
#X connect 30 0 31 0;
#X connect 31 0 39 0;
#X connect 32 0 34 0;
#X connect 33 0 35 0;
#X connect 34 0 30 1;
#X connect 35 0 30 2;
#X connect 38 0 18 0;
#X connect 39 0 20 0;
#X restore 379 228 pd rectangle-\$0;
#X msg 379 51 1;
#X obj 379 169 spigot;
#X text 420 186 minx \, maxx \, miny \, maxy \, centerx \, centery
;
#X obj 159 111 f \$1;
#X obj 379 72 t f b;
#X msg 412 52 0;
#X obj 379 30 moses \$1;
#X obj 379 9 inlet #objs;
#X connect 0 0 13 1;
#X connect 1 0 2 0;
#X connect 1 1 3 0;
#X connect 1 2 4 0;
#X connect 1 3 5 0;
#X connect 1 4 6 0;
#X connect 1 5 7 0;
#X connect 1 6 8 0;
#X connect 1 7 9 0;
#X connect 10 0 1 0;
#X connect 11 0 13 0;
#X connect 12 0 11 0;
#X connect 13 0 10 0;
#X connect 13 0 16 0;
#X connect 14 0 21 0;
#X connect 15 0 19 0;
#X connect 16 0 17 1;
#X connect 18 0 22 0;
#X connect 19 0 17 0;
#X connect 21 0 12 0;
#X connect 22 0 19 1;
#X connect 22 1 21 0;
#X connect 23 0 19 1;
#X connect 24 0 23 0;
#X connect 24 1 18 0;
#X connect 25 0 24 0;
#X restore 312 229 pd showblob2-\$0;
#X text 335 -5 mtx_size or #objs;
#X obj 310 200 spigot;
#X msg 335 169 1;
#X connect 0 0 5 0;
#X connect 1 0 15 0;
#X connect 5 0 16 0;
#X connect 5 1 13 1;
#X connect 5 2 10 0;
#X connect 10 0 11 0;
#X connect 10 1 12 0;
#X connect 11 0 9 0;
#X connect 12 0 9 0;
#X connect 13 0 6 0;
#X connect 13 1 8 0;
#X connect 13 7 7 0;
#X connect 15 0 13 0;
#X connect 16 0 15 1;
