#N canvas 943 340 785 587 10;
#X declare -lib iemmatrix;
#X obj 43 -6 inlet;
#X obj -9 71 inlet;
#X obj 306 145 makesound;
#X obj 306 172 outlet~;
#X obj 147 -43 r start;
#X obj 54 127 showblob \$1;
#X obj 24 104 spigot;
#X obj 147 15 float \$1;
#X obj 108 66 >= 1000;
#X floatatom 24 230 5 0 0 0 - - -;
#X floatatom 70 233 5 0 0 0 - - -;
#X floatatom 119 234 5 0 0 0 - - -;
#X floatatom 161 237 5 0 0 0 - - -;
#X text 32 -28 mtx_size;
#X text -19 53 matrix;
#X obj -76 116 inlet;
#X text -88 95 gem_list;
#X obj 56 172 blob_color;
#X obj 53 296 color_print;
#X obj 11 263 bng 15 250 50 0 empty empty empty 17 7 0 10 -262144 -1
-1;
#X connect 0 0 8 0;
#X connect 1 0 6 0;
#X connect 2 0 3 0;
#X connect 4 0 7 0;
#X connect 5 3 17 2;
#X connect 5 4 17 4;
#X connect 5 5 2 0;
#X connect 5 5 17 1;
#X connect 5 6 2 1;
#X connect 5 6 17 3;
#X connect 5 7 2 2;
#X connect 6 0 5 0;
#X connect 7 0 8 1;
#X connect 8 0 2 3;
#X connect 8 0 5 1;
#X connect 8 0 6 1;
#X connect 9 0 18 1;
#X connect 10 0 18 2;
#X connect 11 0 18 3;
#X connect 15 0 17 0;
#X connect 17 0 9 0;
#X connect 17 1 10 0;
#X connect 17 2 11 0;
#X connect 17 3 12 0;
#X connect 19 0 18 0;
