#N canvas 162 235 800 532 10;
#X declare -lib iemmatrix;
#X obj 216 205 inlet blobinformation;
#X obj 149 275 unpack 0 0 0 0 0 0 0 0;
#X obj 149 304 outlet weightedX;
#X obj 167 324 outlet weightedY;
#X obj 185 344 outlet weightedSize;
#X obj 204 373 outlet minX;
#X obj 222 393 outlet minY;
#X obj 241 418 outlet maxX;
#X obj 259 438 outlet maxY;
#X obj 278 466 outlet size;
#X obj 495 97 inlet;
#X obj 433 8 import iemmatrix;
#X msg 149 246 \$1 \$2 \$3 \$4 \$5 \$6 \$7 \$8;
#X obj 149 155 f \$1;
#X msg 149 197 row \$1;
#X floatatom 149 177 5 0 0 0 - - -;
#X obj 149 39 r start;
#X obj 149 222 matrix;
#X obj 149 61 metro 50;
#X obj 149 114 spigot;
#X obj 149 86 f 1;
#X obj 149 135 delay 300;
#N canvas 108 208 710 500 rectangle 1;
#X obj 57 82 inlet;
#X obj 396 -1 inlet;
#X obj 57 311 rectangle;
#X obj 186 63 +;
#X obj 225 64 +;
#X text 219 94 0..2;
#X text 221 114 -1..+1;
#X obj 510 214 -;
#X obj 547 215 -;
#X obj 193 92 - 1;
#X obj 547 246 * -4;
#X obj 581 15 inlet;
#X obj 497 274 *;
#X obj 532 274 *;
#X obj 164 93 - 1;
#X obj 510 246 * -4;
#X obj 57 175 translateXYZ 0 0 0.1;
#X obj 193 115 * -4;
#X obj 57 198 rotateXYZ 0 180 0;
#X obj 163 116 * -4;
#X obj 57 234 separator;
#X obj 248 176 separator;
#X obj 57 289 alpha;
#X obj 57 268 color 1 1 1 0.5;
#X obj 246 310 circle 0.06;
#X obj 245 281 alpha;
#X obj 245 260 color 1 1 1 0.5;
#X obj 24 353 separator;
#X obj 22 464 alpha;
#X obj 23 493 circle 0.2;
#X obj 57 126 separator;
#X obj 22 443 color 0.8 1 0.8 0.5;
#X obj 25 413 rotateXYZ 0 180 0;
#X obj 25 390 translateXYZ -4 0 0.1;
#X text 91 354 debug \, etc;
#X msg 581 247 1;
#X obj 389 26 unpack 0 0 0 0 0 0;
#X obj 247 211 translateXYZ 0 0 0.1;
#X obj 247 234 rotateXYZ 0 180 0;
#X obj 301 84 - 0.5;
#X obj 352 81 - 0.5;
#X obj 294 116 * -8;
#X obj 324 115 * -8;
#X text 339 131 centroid of object;
#X text 132 38 center of bounding box;
#X connect 0 0 30 0;
#X connect 0 0 21 0;
#X connect 1 0 36 0;
#X connect 3 0 14 0;
#X connect 4 0 9 0;
#X connect 7 0 15 0;
#X connect 8 0 10 0;
#X connect 9 0 17 0;
#X connect 10 0 13 1;
#X connect 11 0 35 0;
#X connect 12 0 2 1;
#X connect 13 0 2 2;
#X connect 14 0 19 0;
#X connect 15 0 12 1;
#X connect 16 0 18 0;
#X connect 17 0 16 2;
#X connect 18 0 20 0;
#X connect 19 0 16 1;
#X connect 20 0 23 0;
#X connect 21 0 37 0;
#X connect 22 0 2 0;
#X connect 23 0 22 0;
#X connect 25 0 24 0;
#X connect 26 0 25 0;
#X connect 28 0 29 0;
#X connect 30 0 16 0;
#X connect 31 0 28 0;
#X connect 32 0 31 0;
#X connect 33 0 32 0;
#X connect 35 0 13 0;
#X connect 35 0 12 0;
#X connect 36 0 3 0;
#X connect 36 0 7 0;
#X connect 36 1 3 1;
#X connect 36 1 7 1;
#X connect 36 2 4 0;
#X connect 36 2 8 0;
#X connect 36 3 4 1;
#X connect 36 3 8 1;
#X connect 36 4 39 0;
#X connect 36 5 40 0;
#X connect 37 0 38 0;
#X connect 38 0 26 0;
#X connect 39 0 41 0;
#X connect 40 0 42 0;
#X connect 41 0 37 1;
#X connect 42 0 37 2;
#X restore 426 262 pd rectangle;
#X obj 426 138 gemhead 70;
#X msg 460 239 \$4 \$6 \$5 \$7 \$1 \$2;
#X connect 0 0 17 1;
#X connect 1 0 2 0;
#X connect 1 1 3 0;
#X connect 1 2 4 0;
#X connect 1 3 5 0;
#X connect 1 4 6 0;
#X connect 1 5 7 0;
#X connect 1 6 8 0;
#X connect 1 7 9 0;
#X connect 10 0 19 1;
#X connect 10 0 21 0;
#X connect 10 0 22 2;
#X connect 12 0 1 0;
#X connect 13 0 15 0;
#X connect 14 0 17 0;
#X connect 15 0 14 0;
#X connect 16 0 18 0;
#X connect 17 0 12 0;
#X connect 17 0 24 0;
#X connect 18 0 20 0;
#X connect 20 0 19 0;
#X connect 21 0 13 0;
#X connect 23 0 22 0;
#X connect 24 0 22 1;
