#N canvas 1023 124 782 587 10;
#X declare -lib iemmatrix;
#X obj 324 2 inlet;
#X obj 146 77 inlet;
#X obj 363 -3 r start;
#X obj 209 133 showblob \$1;
#X obj 179 110 spigot;
#X obj 363 23 float \$1;
#X obj 324 51 >= 1000;
#X text 313 -20 mtx_size;
#X text 136 59 matrix;
#X obj 79 122 inlet;
#X text 67 101 gem_list;
#X obj 211 178 blob_RGB;
#X obj 360 194 s x-\$0;
#X obj 362 171 s y-\$0;
#X obj 363 150 s size-\$0;
#X obj 361 120 s on/off-\$0;
#X obj 50 187 r on/off-\$0;
#X obj 18 363 r x-\$0;
#X obj 147 362 r size-\$0;
#X obj 84 362 r y-\$0;
#X obj 323 79 trigger f f f;
#X obj 18 384 outlet x;
#X obj 264 384 outlet color;
#X obj 147 384 outlet size;
#X obj 84 384 outlet y;
#X obj 372 385 outlet on/off;
#X obj 372 363 r on/off-\$0;
#X obj 209 240 rgb2hsv;
#X obj 209 213 pack f f f;
#X obj 209 267 unpack f f f;
#N canvas 618 124 946 479 detectColor 1;
#X obj 16 8 inlet H;
#X obj 75 8 inlet S;
#X obj 132 8 inlet V;
#X obj 16 31 * 360;
#X obj 16 56 s hue-\$0;
#X obj 75 31 s sat-\$0;
#X obj 132 31 s val-\$0;
#X obj 20 106 cnv 15 150 200 empty empty Black 20 12 0 14 -1 -262144
0;
#X obj 97 161 < 0.2;
#X obj 33 161 < 0.8;
#X obj 59 183 &&;
#X msg 59 226 Black;
#X obj 59 205 tgl 15 0 empty empty empty 17 7 0 10 -262144 -1 -1 0
1;
#X obj 59 247 spigot;
#X obj 59 268 print Object \$1:;
#X obj 33 140 r sat-\$0;
#X obj 97 139 r val-\$0;
#X obj 191 105 cnv 15 150 200 empty empty White 20 12 0 14 -262144
-1 0;
#X obj 230 181 &&;
#X obj 266 219 tgl 15 0 empty empty empty 17 7 0 10 -262144 -1 -1 0
1;
#X obj 266 261 spigot;
#X obj 266 282 print Object \$1:;
#X obj 204 139 r sat-\$0;
#X obj 268 138 r val-\$0;
#X obj 268 160 > 0.8;
#X obj 204 160 < 0.1;
#X msg 266 239 White;
#X obj 420 105 cnv 15 150 200 empty empty Red 20 12 0 14 -258113 -1
0;
#X obj 459 204 tgl 15 0 empty empty empty 17 7 0 10 -262144 -1 -1 1
1;
#X obj 459 246 spigot;
#X obj 459 267 print Object \$1:;
#X obj 433 139 r hue-\$0;
#X obj 497 138 r hue-\$0;
#X obj 433 160 < 30;
#X obj 497 160 > 330;
#X obj 459 182 ||;
#X msg 459 224 Red;
#X obj 570 105 cnv 15 150 200 empty empty Green 20 12 0 14 -4034 -1
0;
#X obj 609 204 tgl 15 0 empty empty empty 17 7 0 10 -262144 -1 -1 1
1;
#X obj 609 246 spigot;
#X obj 609 267 print Object \$1:;
#X obj 583 139 r hue-\$0;
#X obj 647 138 r hue-\$0;
#X obj 609 182 ||;
#X obj 720 105 cnv 15 150 200 empty empty Blue 20 12 0 14 -1408 -1
0;
#X obj 759 204 tgl 15 0 empty empty empty 17 7 0 10 -262144 -1 -1 1
1;
#X obj 759 246 spigot;
#X obj 759 267 print Object \$1:;
#X obj 733 139 r hue-\$0;
#X obj 797 138 r hue-\$0;
#X obj 759 182 ||;
#X msg 609 224 Green;
#X msg 759 224 Blue;
#X obj 583 160 < 90;
#X obj 647 160 > 150;
#X obj 733 160 < 185;
#X obj 797 160 > 270;
#X obj 22 287 s black-\$0;
#X obj 226 301 s white-\$0;
#X obj 422 286 s red-\$0;
#X obj 572 286 s green-\$0;
#X obj 722 286 s blue-\$0;
#X obj 311 159 r black-\$0;
#X obj 303 181 &&;
#X obj 266 198 &&;
#X connect 0 0 3 0;
#X connect 1 0 5 0;
#X connect 2 0 6 0;
#X connect 3 0 4 0;
#X connect 8 0 10 1;
#X connect 9 0 10 0;
#X connect 10 0 12 0;
#X connect 11 0 13 0;
#X connect 12 0 13 1;
#X connect 12 0 11 0;
#X connect 12 0 57 0;
#X connect 13 0 14 0;
#X connect 15 0 9 0;
#X connect 16 0 8 0;
#X connect 18 0 64 0;
#X connect 19 0 20 1;
#X connect 19 0 26 0;
#X connect 19 0 58 0;
#X connect 20 0 21 0;
#X connect 22 0 25 0;
#X connect 23 0 24 0;
#X connect 24 0 18 1;
#X connect 25 0 18 0;
#X connect 26 0 20 0;
#X connect 28 0 29 1;
#X connect 28 0 36 0;
#X connect 28 0 59 0;
#X connect 29 0 30 0;
#X connect 31 0 33 0;
#X connect 32 0 34 0;
#X connect 33 0 35 0;
#X connect 34 0 35 1;
#X connect 35 0 28 0;
#X connect 36 0 29 0;
#X connect 38 0 39 1;
#X connect 38 0 51 0;
#X connect 38 0 60 0;
#X connect 39 0 40 0;
#X connect 41 0 53 0;
#X connect 42 0 54 0;
#X connect 43 0 38 0;
#X connect 45 0 46 1;
#X connect 45 0 52 0;
#X connect 45 0 61 0;
#X connect 46 0 47 0;
#X connect 48 0 55 0;
#X connect 49 0 56 0;
#X connect 50 0 45 0;
#X connect 51 0 39 0;
#X connect 52 0 46 0;
#X connect 53 0 43 0;
#X connect 54 0 43 1;
#X connect 55 0 50 0;
#X connect 56 0 50 1;
#X connect 62 0 63 0;
#X connect 63 0 64 1;
#X connect 64 0 19 0;
#X restore 203 297 pd detectColor;
#X connect 0 0 6 0;
#X connect 1 0 4 0;
#X connect 2 0 5 0;
#X connect 3 3 11 2;
#X connect 3 4 11 4;
#X connect 3 5 11 1;
#X connect 3 5 12 0;
#X connect 3 6 11 3;
#X connect 3 6 13 0;
#X connect 3 7 14 0;
#X connect 4 0 3 0;
#X connect 5 0 6 1;
#X connect 6 0 20 0;
#X connect 9 0 11 0;
#X connect 11 0 28 0;
#X connect 11 1 28 1;
#X connect 11 2 28 2;
#X connect 17 0 21 0;
#X connect 18 0 23 0;
#X connect 19 0 24 0;
#X connect 20 0 4 1;
#X connect 20 1 3 1;
#X connect 20 2 15 0;
#X connect 26 0 25 0;
#X connect 27 0 29 0;
#X connect 28 0 27 0;
#X connect 29 0 30 0;
#X connect 29 1 30 1;
#X connect 29 2 30 2;
