#N canvas 498 489 785 587 10;
#X declare -lib iemmatrix;
#X obj 195 53 inlet;
#X obj 142 115 inlet;
#X obj 280 125 >=;
#X obj 204 189 makesound;
#X obj 163 226 outlet~;
#X obj 299 74 f \$1;
#N canvas 741 448 529 388 showblob 1;
#X obj 114 106 inlet blobinformation;
#X obj 52 180 unpack 0 0 0 0 0 0 0 0;
#X obj 52 209 outlet weightedX;
#X obj 73 229 outlet weightedY;
#X obj 94 249 outlet weightedSize;
#X obj 141 278 outlet minX;
#X obj 162 298 outlet minY;
#X obj 228 278 outlet maxX;
#X obj 245 298 outlet maxY;
#X obj 333 280 outlet size;
#N canvas 982 373 568 335 rectangle 0;
#X obj 68 75 inlet;
#X obj 215 -1 inlet;
#X obj 68 257 rectangle;
#X obj 68 234 translateXYZ;
#X obj 208 26 unpack 0 0 0 0;
#X obj 215 94 +;
#X obj 254 95 +;
#X text 248 125 0..2;
#X text 250 145 -1..+1;
#X obj 340 148 -;
#X obj 377 149 -;
#X obj 222 123 - 1;
#X obj 377 180 * -4;
#X obj 423 179 inlet;
#X obj 327 208 *;
#X obj 362 208 *;
#X obj 193 124 - 1;
#X obj 340 180 * -4;
#X obj 222 146 * -4;
#X obj 192 147 * 4;
#X connect 0 0 3 0;
#X connect 1 0 4 0;
#X connect 3 0 2 0;
#X connect 4 0 5 0;
#X connect 4 0 9 0;
#X connect 4 1 5 1;
#X connect 4 1 9 1;
#X connect 4 2 6 0;
#X connect 4 2 10 0;
#X connect 4 3 6 1;
#X connect 4 3 10 1;
#X connect 5 0 16 0;
#X connect 6 0 11 0;
#X connect 9 0 17 0;
#X connect 10 0 12 0;
#X connect 11 0 18 0;
#X connect 12 0 15 1;
#X connect 13 0 14 0;
#X connect 13 0 15 0;
#X connect 14 0 2 1;
#X connect 15 0 2 2;
#X connect 16 0 19 0;
#X connect 17 0 14 1;
#X connect 18 0 3 2;
#X connect 19 0 3 1;
#X restore 329 165 pd rectangle;
#X obj 329 94 color 1 1 1 0.5;
#X obj 329 73 gemhead 70;
#X obj 329 115 alpha;
#X obj 452 148 inlet;
#X obj 52 123 matrix;
#X obj 423 -2 import iemmatrix;
#X msg 52 151 \$1 \$2 \$3 \$4 \$5 \$6 \$7 \$8;
#X msg 363 140 \$4 \$6 \$5 \$7;
#X obj 52 60 f \$1;
#X msg 52 102 row \$1;
#X floatatom 52 82 5 0 0 0 - - -;
#X obj 52 20 r start;
#X obj 52 40 metro 100;
#X connect 0 0 15 1;
#X connect 1 0 2 0;
#X connect 1 1 3 0;
#X connect 1 2 4 0;
#X connect 1 3 5 0;
#X connect 1 4 6 0;
#X connect 1 5 7 0;
#X connect 1 6 8 0;
#X connect 1 7 9 0;
#X connect 11 0 13 0;
#X connect 12 0 11 0;
#X connect 13 0 10 0;
#X connect 14 0 10 2;
#X connect 15 0 17 0;
#X connect 15 0 18 0;
#X connect 17 0 1 0;
#X connect 18 0 10 1;
#X connect 19 0 21 0;
#X connect 20 0 15 0;
#X connect 21 0 20 0;
#X connect 22 0 23 0;
#X connect 23 0 19 0;
#X restore 163 153 pd showblob;
#X obj 299 16 r start;
#X connect 0 0 2 0;
#X connect 1 0 6 0;
#X connect 2 0 3 3;
#X connect 2 0 6 1;
#X connect 3 0 4 0;
#X connect 5 0 2 1;
#X connect 6 5 3 0;
#X connect 6 6 3 1;
#X connect 6 7 3 2;
#X connect 7 0 5 0;
