#N canvas 733 191 450 563 10;
#X declare -lib mrpeach;
#X obj 12 13 import mrpeach;
#X obj 17 59 udpreceive 9001;
#X obj 17 90 unpackOSC;
#X obj 17 122 routeOSC /obj1 /obj2;
#X obj 17 155 unpack f f f f;
#X floatatom 17 197 5 0 0 0 - - -;
#X obj 18 283 mtof;
#X obj 201 484 output~;
#X obj 134 157 unpack f f f f;
#X text 110 13 precisamos incluir essa biblioteca para usar OSC;
#X text 119 57 esperamos por mensagens vindas da porta 9001;
#X text 84 88 desempacotamos todas as mensagens OSC que chegam;
#X text 151 113 mandamos as mensagens /obj1 para um lado e /obj2 para
outro;
#X text 226 151 desempacotamos os 4 numeros que representam x \, y
\, size e angle;
#X floatatom 66 186 5 0 0 0 - - -;
#X text 27 211 x;
#X text 77 199 y;
#X msg 66 230 0 \$1;
#X msg 120 205 1 \$1;
#X obj 201 324 mono-pureverb4;
#X obj 18 254 * 50;
#X obj 200 397 mono-delay;
#X obj 201 236 syn-ugurphase;
#X connect 1 0 2 0;
#X connect 2 0 3 0;
#X connect 3 0 4 0;
#X connect 3 1 8 0;
#X connect 4 0 5 0;
#X connect 4 1 14 0;
#X connect 5 0 18 0;
#X connect 5 0 20 0;
#X connect 6 0 22 0;
#X connect 14 0 17 0;
#X connect 17 0 22 1;
#X connect 18 0 22 1;
#X connect 19 0 21 0;
#X connect 20 0 6 0;
#X connect 21 0 7 1;
#X connect 21 0 7 0;
#X connect 22 0 19 0;
